<?xml version="1.0" encoding="utf-8"?>
<!-- Generator: Adobe Illustrator 19.2.0, SVG Export Plug-In . SVG Version: 6.00 Build 0)  -->
<svg version="1.1" id="Layer_1" xmlns="http://www.w3.org/2000/svg" xmlns:xlink="http://www.w3.org/1999/xlink" x="0px" y="0px"
	 viewBox="0 0 100 100" style="enable-background:new 0 0 100 100;" xml:space="preserve">
<style type="text/css">
	.st0{fill:#FFFFFF;}
</style>
<path class="st0" d="M89.9,96.8L3.2,10.1C0.6,7.5,0,3.8,1.9,1.9l0,0C3.8,0,7.5,0.6,10.1,3.2l86.7,86.7c2.6,2.6,3.2,6.3,1.3,8.2l0,0
	C96.2,100,92.5,99.4,89.9,96.8z"/>
<path class="st0" d="M96.8,10.1L10.1,96.8c-2.6,2.6-6.3,3.2-8.2,1.3l0,0c-1.9-1.9-1.3-5.6,1.3-8.2L89.9,3.2c2.6-2.6,6.3-3.2,8.2-1.3
	l0,0C100,3.8,99.4,7.5,96.8,10.1z"/>
</svg>
