<?xml version="1.0" encoding="utf-8"?>
<!-- Generator: Adobe Illustrator 19.2.0, SVG Export Plug-In . SVG Version: 6.00 Build 0)  -->
<svg version="1.1" id="Layer_1" xmlns="http://www.w3.org/2000/svg" xmlns:xlink="http://www.w3.org/1999/xlink" x="0px" y="0px"
	 viewBox="0 0 937.3 108.4" style="enable-background:new 0 0 937.3 108.4;" xml:space="preserve">
<g>
	<path d="M18.5,62.7c0,14.5,0,29.1,0,43.8c-6.4,0-12.3,0-18.5,0C0,71.6,0,36.8,0,1.8c6.2,0,12.3,0,18.8,0
		c5.9,22.6,11.8,45.4,18,69.3c3.7-14.4,7-27.5,10.4-40.6c2.2-8.5,4.5-16.9,6.4-25.4c0.6-2.6,1.5-3.7,4.4-3.6c5,0.2,10,0.1,15.4,0.1
		c0,35,0,69.8,0,104.9c-5.9,0-11.8,0-18.3,0c0-14.5,0-29.1,0-43.7c-0.3,0-0.7,0-1-0.1C51.1,75.9,47.8,89,45,102.3
		c-0.8,3.6-2,4.7-5.7,4.6c-9.1-0.3-9.1-0.1-11.2-9.1c-2.8-11.7-5.7-23.4-8.5-35.1C19.2,62.7,18.8,62.7,18.5,62.7z"/>
	<path d="M527.3,71.1c4.3-16.7,8.2-32.1,12.2-47.5c1.6-6.3,3.4-12.6,4.8-19c0.5-2.3,1.5-3.2,3.9-3.1c5.1,0.2,10.3,0.1,15.8,0.1
		c0,35,0,69.8,0,104.9c-5.9,0-11.8,0-18.2,0c0-14.5,0-29,0-43.5c-0.4,0-0.7-0.1-1.1-0.1c-3.4,14.5-6.9,29-10.4,44
		c-3.9,0-7.8,0.2-11.6-0.2c-1-0.1-2.4-2-2.7-3.2c-3.1-12.1-5.9-24.3-8.9-36.4c-0.3-1.4-0.7-2.9-2-4.2c0,14.6,0,29.1,0,43.8
		c-6.5,0-12.5,0-18.6,0c0-35,0-69.8,0-104.8c6.2,0,12.3,0,18.8,0C515.2,24.4,521.1,47.1,527.3,71.1z"/>
	<path d="M124.6,54c0-10.3,0-20.5,0-30.8c0.1-14.7,6.3-21.8,21-23.1c4.4-0.4,8.9,0,13.2,0.9c9.4,2,14.9,8.2,15.3,17.8
		c0.5,14.3,0.3,28.6,0.4,42.9c0,8.7,0.2,17.5-0.2,26.2c-0.6,11.8-6.3,18.3-17.8,20c-4.6,0.7-9.5,0.7-14.1,0
		c-11.6-1.8-17.4-8.6-17.7-20.5C124.5,76.3,124.7,65.1,124.6,54C124.6,54,124.6,54,124.6,54z M143.9,54c0,10.3,0,20.5,0,30.8
		c0,4.8,1.5,6.7,5.4,6.7c4.1,0.1,5.8-1.8,5.8-6.8c0.1-20.4,0.1-40.8,0-61.2c0-4.9-1.9-6.9-5.8-6.8c-3.7,0.1-5.3,2-5.3,6.9
		C143.9,33.7,143.9,43.9,143.9,54z"/>
	<path d="M223.9,54c0-10.4-0.1-20.8,0-31.2c0.1-14,6-20.8,19.8-22.4c4.7-0.5,9.8-0.2,14.4,0.7c9.4,1.9,14.9,8.2,15.2,17.7
		c0.5,15.5,0.3,31.1,0.4,46.6c0,7.6,0.2,15.3-0.2,22.9c-0.6,11.2-6,17.6-17,19.3c-5.9,0.9-12.2,0.6-18.1-0.5
		c-8.7-1.7-14-8.4-14.3-17.7C223.8,77.6,224,65.8,224,54C224,54,223.9,54,223.9,54z M254.4,54.4c0-10.4,0-20.8,0-31.2
		c0-3-0.6-5.5-4.1-6.3c-4.4-0.9-7,1.2-7,6.2c-0.1,16,0,31.9,0,47.9c0,5-0.1,10,0.1,15c0.1,4,2,5.6,5.7,5.6c3.7-0.1,5.4-1.8,5.4-6.3
		C254.5,75,254.4,64.7,254.4,54.4z"/>
	<path d="M710.6,106.5c0-35,0-69.7,0-105c3.5,0,6.9,0,10.3,0c7.1,0.1,14.2-0.3,21.2,0.5c11.6,1.3,17.8,7.5,18.1,19.1
		c0.5,21.9,0.5,43.9,0,65.8c-0.3,11.7-7.3,18.7-18.8,19.4C731.3,107,721.1,106.5,710.6,106.5z M729.9,89.7
		c10.3,0.8,11.3-0.1,11.3-9.9c0-5.8,0-11.6,0-17.5c0-12.3,0-24.7,0-37c0-5.3-1.7-6.9-7-7c-1.3,0-2.7,0.1-4.2,0.2
		C729.9,42.4,729.9,65.9,729.9,89.7z"/>
	<path d="M353.7,37.3c0-4.8,0.1-9.4,0-13.9c-0.1-4.6-1.8-6.6-5.6-6.6c-3.8,0-5.5,2-5.5,6.7c0,20.6,0,41.1,0,61.7
		c0,4.7,1.7,6.5,5.7,6.5c3.8-0.1,5.4-1.8,5.5-6.3c0.1-7.4,0-14.7,0-22.3c-1.7-0.3-3.1-0.6-4.8-0.9c0-5.3,0-10.5,0-16.1
		c7.9,0,15.8,0,24,0c0.1,1.3,0.2,2.7,0.2,4c0,11.3,0,22.5,0,33.8c0,2.5-0.1,5-0.5,7.5c-1.3,8.4-6.1,14.2-14.5,15.8
		c-5.6,1.1-11.7,1.4-17.3,0.6c-11.5-1.6-17.2-8.5-17.5-20.2c-0.3-11.4-0.1-22.8-0.1-34.2c0-10.3-0.1-20.6,0-30.9
		c0.1-13.7,6-20.6,19.7-22.1c4.7-0.6,9.8-0.3,14.5,0.7c9.4,1.8,14.7,8.1,15.4,17.7c0.4,6.1,0.1,12.2,0.1,18.5
		C366.5,37.3,360.3,37.3,353.7,37.3z"/>
	<path d="M937.3,106.7c-6,0-11.7,0.2-17.3-0.2c-0.9-0.1-2.3-2-2.6-3.2c-1.1-6-1.9-12-2.8-18.2c-4.6,0-9,0-14,0
		c-1.1,6.9-2.2,14-3.4,21.3c-6.4,0-12.7,0-19.8,0c5.8-35.1,11.6-69.8,17.4-104.9c8.1,0,15.9-0.1,23.6,0.1c0.7,0,1.9,1.5,2,2.4
		c4.8,28.5,9.6,56.9,14.3,85.4C935.7,95,936.4,100.7,937.3,106.7z M912.1,67.9c-1.4-9.8-2.8-19.3-4.2-28.8c-0.2,0-0.5,0-0.7,0
		c-1.4,9.5-2.8,19-4.2,28.8C906.2,67.9,908.9,67.9,912.1,67.9z"/>
	<path d="M661.3,1.7c0,5.7,0,10.9,0,16.6c-8.6,0-17,0-25.6,0c0,9.3,0,18.1,0,27.3c7.3,0,14.5,0,21.9,0c0,5.7,0,11,0,16.9
		c-7.2,0-14.5,0-22,0c0,9.4,0,18.2,0,27.4c8.6,0,17,0,25.7,0c0,5.7,0,10.9,0,16.5c-14.9,0-29.8,0-44.9,0c0-34.9,0-69.7,0-104.7
		C631.4,1.7,646.2,1.7,661.3,1.7z"/>
	<path d="M811.9,1.8c6.2,0,12.3,0,18.7,0c0,34.8,0,69.5,0,104.7c-6.1,0-12.3,0-18.7,0C811.9,71.6,811.9,36.8,811.9,1.8z"/>
</g>
</svg>
