<?xml version="1.0" encoding="utf-8"?>
<!-- Generator: Adobe Illustrator 19.2.0, SVG Export Plug-In . SVG Version: 6.00 Build 0)  -->
<svg version="1.1" id="Layer_1" xmlns="http://www.w3.org/2000/svg" xmlns:xlink="http://www.w3.org/1999/xlink" x="0px" y="0px"
	 viewBox="0 0 100 100" style="enable-background:new 0 0 100 100;" xml:space="preserve">
<g>
	<path d="M50,0c27.6,0,50,22.5,50,50.1c0,27.6-22.5,49.9-50.1,49.9C22.3,100,0,77.5,0,49.8C0,22.3,22.5,0,50,0z M65.3,50.2
		c-2,0.4-2.4,0-2.9-2.6c-0.3-1.7,0.2-2.3,1.9-2.4c0.8,0,1.6-0.1,2.6-0.2c-0.2-0.6-0.2-0.9-0.3-1.1c-1.1-2.4-1.1-2.4,1.3-3.2
		c0.5-0.2,1-0.5,1.4-0.9c1.3-1.5,3.7-2.3,3.9-4.7c0-0.1,0.4-0.2,0.6-0.3c0.5,0.9,0.9,1.9,1.6,2.4c1,0.7,4.8-0.5,5.3-1.7
		c0.7-1.7,1.7-2.9,3.7-2.9c0,0,0.1-0.2,0.2-0.6c-0.9,0.1-1.6,0.3-2.3,0.3c-0.6,0-1.2-0.2-1.8-0.4c0.2-0.6,0.2-1.2,0.5-1.7
		c0.5-0.6,1.1-1.1,1.8-1.7c-0.4-0.4-0.8-0.8-1.3-1.2c-1,1.2-2,2.3-3,3.5c1.3,1,1.1,2-0.2,2.9c-0.2,0.2-0.4,0.5-0.6,0.7
		c-0.4,0.4-0.9,0.9-1.4,1.3c-0.5-0.5-0.9-1.1-1.4-1.6c-0.2-0.2-0.3-0.5-0.4-0.9c-0.4,0.1-0.8,0.3-1.1,0.4c-0.8,0.1-1.6,0.1-2.4,0.1
		c0.2-1,0.3-2,0.6-3c0.1-0.3,0.7-0.5,1-0.8c0.9-1.1,2-2.2,2.7-3.5c0.8-1.6,1.4-3.2,3.8-2.9c-4.3-4.9-9.5-8.3-15.6-10.6
		c-0.1,1.5-0.1,2.8-0.4,4c-0.7,3.2-0.7,6.7-4.2,8.5c-1,0.5-2.1,0.9-3.3,1.3c-1.4,0.4-2.5,1.1-3,2.7c-0.3,1-1.1,1.8-1.9,3
		c-2.1-3.2-4.3-5.8-4.4-9.5c0-0.8-0.3-2-0.9-2.4c-1.9-1.4-4-2.4-6.4-3.8c0-1,0-2.6,0-4.7c-3.4,1.5-6.5,2.9-9.5,4.3
		c0.8,1.1,1.7,1.9,2,2.8c0.7,2,2.2,2.8,3.9,3.6c1.6,0.7,3.2,1.4,4.7,2.2c1.4,0.8,2.5,2,1.4,3.9c-0.3,0.5-0.3,1.4-0.7,1.7
		c-0.9,0.6-3.7-0.9-3.9-1.9c-0.3-2-1.9-3-2.8-3.9c-1.9,1.6-3.7,2.8-5.1,4.4c-0.7,0.7-1.1,2.1-1,3c0.1,1.4,3.2,3,4.8,2.7
		c1.6-0.3,1.6-1.7,1.7-2.9c0.2-1.1,0.6-1.3,1.6-1.1c1.6,0.3,3.3,0.5,4.9,0.8c0.5,0.1,1,0.4,1.3,0.8c1.1,1.4,2.2,2.8,3.2,4.2
		c0.4,0.5,0.8,1.3,0.6,1.7c-0.2,0.5-1,0.9-1.6,1.2c-1.1,0.6-2.3,1.1-3.4,1.8c-0.7,0.4-1.3,1.3-2.1,1.5c-3.4,0.8-4.3,3.7-5.3,6.3
		c-0.8,2-1.2,2.5-3.4,2.4c-1.4-0.1-2.8-0.1-4.2-0.1c-1.4,0-1.5,0.8-0.9,1.9c0.8,1.7,2.3,1.4,3.7,1.2c2.3-0.3,2.7,0.4,2.7,2.7
		c0,1.1,0.9,2.4,1.7,3.4c0.2,0.3,1.3-0.1,2.1-0.2c0.8-0.1,1.6-0.3,2.3-0.3c1.2,0.1,2.4,0.4,3.7,0.5c2.8,0.2,4.5,2,5.4,4.4
		c0.4,1.2,1,1.7,2.1,1.9c1.8,0.4,3.6,0.7,5.4,1.2c1.4,0.4,2.2,1.3,1.6,2.8c-0.8,1.9-1.5,3.7-2.5,5.5c-1,1.7-2.5,3-3.4,4.7
		c-1.4,2.6-2.6,5.3-3.9,8c8.1,1.5,19.1-1.3,27.1-7c2-1.4,3.8-3,4.2-5.5c0.1-0.7,0-1.6-0.4-2.1c-1.4-1.7-2.8-3.4-4.4-4.9
		c-0.7-0.6-1.9-0.9-2.8-0.8c-2,0.1-4,0.7-6,0.8c-0.9,0-2.1-0.4-2.8-1.1C57.4,65,57,62,59.1,57.8c0.7-1.4,1.6-2.7,2.5-3.8
		C62.8,52.6,64.1,51.4,65.3,50.2c1-0.1,2-0.1,3-0.3c1.3-0.2,2.5-0.5,3.8-0.5c0.7,0,1.9,0.5,2.1,1.1c1,2.2,2.8,2.7,4.8,2.5
		c3.9-0.5,7.4-0.1,9.4,4.1c0.1-0.1,0.2-0.2,0.4-0.3c0.2-2.4,0.4-4.9,0.6-7.9c-3,1.7-5.3,0.4-7.7-0.2c-1.3-0.3-2-1-2.2-2.3
		c-0.2-1.3-1-1.9-2.7-1.7c0.5,0.9,0.9,1.6,1.3,2.3c1,1.7,0.8,2.3-1.5,3c-0.3-1-0.4-2.1-0.9-2.9c-0.5-0.8-1.4-1.8-2.3-2
		c-2.1-0.6-3.9,0.4-5.1,2.3C67.7,48.7,67.1,50,65.3,50.2z M12.3,39.9c-6.7,22.1,8.4,43.4,26.3,47.6c0-3.4,0-6.8,0-10.3
		c0-0.5-0.4-1.2-0.8-1.6c-3.5-3.1-4.6-7-3.9-11.5c0.1-0.6,0-1.5-0.4-1.8c-1.8-1.5-3.8-2.8-5.8-4.2c-0.3-0.2-0.8-0.3-1.2-0.3
		c-3.4,0.2-5.1-1.7-6.4-4.6c-0.6-1.4-2.1-2.4-3.1-3.7c-0.8-1-1.9-1.9-2.4-3.1C13.6,44.4,13.1,42.1,12.3,39.9z"/>
	<path d="M69.5,38.6c-1.1,0.7-2.2,1.3-3.6,2.1c-0.2-1.5-0.3-2.5-0.4-4.1c-0.5,0.9-0.6,1.4-1,1.7c-0.5,0.4-1.1,0.6-1.7,0.9
		c0-0.7-0.3-1.5,0-2c0.3-0.6,1.2-1,1.9-1.6c-0.3-1.4-0.1-2.7,1.8-3.1c1.3,1.6,0.2,4.5,2.9,5.3C69.4,38.2,69.4,38.4,69.5,38.6z"/>
</g>
</svg>
