<?xml version="1.0" encoding="utf-8"?>
<!-- Generator: Adobe Illustrator 19.2.0, SVG Export Plug-In . SVG Version: 6.00 Build 0)  -->
<svg version="1.1" id="Layer_1" xmlns="http://www.w3.org/2000/svg" xmlns:xlink="http://www.w3.org/1999/xlink" x="0px" y="0px"
	 viewBox="0 0 100 100" style="enable-background:new 0 0 100 100;" xml:space="preserve">
<style type="text/css">
	.st0{fill:#FFFFFF;}
</style>
<g>
	<path class="st0" d="M54.9,41.6c0,6.8,0,13.5,0,20.1c1.5,0,2.9,0,4.5,0c0-2.2,0-4.4,0-6.6c1.5-0.1,3-0.1,4.4-0.2
		c3.2-0.4,5.3-2.4,5.7-5.4c0.5-3.6-0.8-6.7-4.9-7.4C61.5,41.6,58.2,41.7,54.9,41.6z M34.8,41.8c-5.2,0-10.3,0-15.4,0
		c0,1.3,0,2.5,0,3.8c1.8,0,3.6,0,5.5,0c0,5.4,0,10.8,0,16.1c1.5,0,3,0,4.5,0c0-5.4,0-10.7,0-16.2c1.9,0,3.6,0,5.4,0
		C34.8,44.2,34.8,43,34.8,41.8z M51.8,41.8c-5.2,0-10.3,0-15.4,0c0,1.3,0,2.5,0,3.8c1.8,0,3.6,0,5.5,0c0,5.4,0,10.8,0,16.1
		c1.5,0,3,0,4.5,0c0-5.4,0-10.7,0-16.2c1.9,0,3.6,0,5.4,0C51.8,44.2,51.8,43,51.8,41.8z M78,49.5c0-1.7-1.1-2.9-2.7-2.9
		c-1.6,0-2.7,1.1-2.8,2.8c0,1.6,1.1,2.8,2.6,2.9C76.9,52.3,78,51.2,78,49.5z M78,59.3c0-1.7-1.1-2.9-2.7-2.9c-1.6,0-2.7,1.1-2.7,2.8
		c0,1.6,1.1,2.8,2.6,2.8C76.9,62.1,78,60.9,78,59.3z"/>
	<path d="M0.3,41.7c1.5,0,3,0,4.6,0c0,2.6,0,5.2,0,7.8c2.3,0,4.5,0,6.9,0c0-2.5,0-5.1,0-7.7c1.5,0,3,0,4.5,0c0,6.6,0,13.2,0,19.9
		c-1.5,0-2.9,0-4.5,0c0-2.7,0-5.4,0-8.2c-2.3,0-4.5,0-6.8,0c0,2.7,0,5.4,0,8.2c-1.6,0-3.1,0-4.6,0C0.3,55.1,0.3,48.4,0.3,41.7z"/>
	<path d="M89.3,40c-1.4,6.3-2.9,12.6-4.3,18.9c-0.6,2.5-1.2,5.1-1.8,7.7c-1,0-1.9,0-3,0c0.4-1.8,0.8-3.5,1.2-5.3
		c1.6-6.9,3.2-13.7,4.8-20.6c0.1-0.2,0-0.4,0.1-0.7C87.3,40,88.3,40,89.3,40z"/>
	<path d="M99.7,40c-1.4,6.3-2.9,12.6-4.3,18.9c-0.6,2.5-1.2,5.1-1.8,7.7c-1,0-1.9,0-3,0c0.4-1.8,0.8-3.5,1.2-5.3
		c1.6-6.9,3.2-13.7,4.8-20.6c0.1-0.2,0-0.4,0.1-0.7C97.7,40,98.7,40,99.7,40z"/>
	<path d="M54.9,41.6c3.3,0.1,6.5,0,9.7,0.5c4.1,0.6,5.4,3.8,4.9,7.4c-0.4,3-2.6,5-5.7,5.4c-1.4,0.2-2.9,0.2-4.4,0.2
		c0,2.2,0,4.4,0,6.6c-1.5,0-3,0-4.5,0C54.9,55.1,54.9,48.4,54.9,41.6z M59.4,51.3c1.1,0,2.2,0.1,3.2,0c1.6-0.2,2.5-1.3,2.5-3
		c0-1.6-0.7-2.6-2.3-2.9c-1.1-0.2-2.3-0.1-3.4-0.2C59.4,47.4,59.4,49.3,59.4,51.3z"/>
	<path d="M34.8,41.8c0,1.2,0,2.5,0,3.8c-1.8,0-3.6,0-5.4,0c0,5.4,0,10.8,0,16.2c-1.5,0-3,0-4.5,0c0-5.4,0-10.7,0-16.1
		c-1.9,0-3.6,0-5.5,0c0-1.3,0-2.5,0-3.8C24.5,41.8,29.7,41.8,34.8,41.8z"/>
	<path d="M51.8,41.8c0,1.2,0,2.5,0,3.8c-1.8,0-3.6,0-5.4,0c0,5.4,0,10.8,0,16.2c-1.5,0-3,0-4.5,0c0-5.4,0-10.7,0-16.1
		c-1.9,0-3.6,0-5.5,0c0-1.3,0-2.5,0-3.8C41.5,41.8,46.6,41.8,51.8,41.8z"/>
	<path d="M78,49.5c0,1.6-1.2,2.8-2.8,2.8c-1.5,0-2.6-1.2-2.6-2.9c0-1.7,1.1-2.8,2.8-2.8C77,46.6,78,47.8,78,49.5z"/>
	<path d="M78,59.3c0,1.7-1.2,2.8-2.8,2.8c-1.6,0-2.6-1.2-2.6-2.8c0-1.7,1.1-2.8,2.7-2.8C76.9,56.4,78,57.6,78,59.3z"/>
</g>
</svg>
