<?xml version="1.0" encoding="utf-8"?>
<!-- Generator: Adobe Illustrator 19.2.0, SVG Export Plug-In . SVG Version: 6.00 Build 0)  -->
<svg version="1.1" id="Layer_1" xmlns="http://www.w3.org/2000/svg" xmlns:xlink="http://www.w3.org/1999/xlink" x="0px" y="0px"
	 viewBox="0 0 100 100" style="enable-background:new 0 0 100 100;" xml:space="preserve">
<g>
	<path d="M50.3,10.7c4,0.1,8.3,0.2,12.6,0.5c3.9,0.2,7.8,0.6,11.8,1c3.7,0.4,7.4,0.9,11,1.4c3.3,0.5,6,2.1,8.3,4.6
		c2.2,2.3,3.4,5.1,4,8.3c0.6,3.4,1,6.8,1.3,10.3c0.5,5.7,0.7,11.4,0.5,17.2c-0.1,3.4-0.3,6.8-0.6,10.1c-0.3,3.6-0.8,7.2-1.5,10.7
		c-1.2,6.1-6.3,10.9-12.4,11.8c-3.5,0.5-7.1,1-10.7,1.4c-3.2,0.3-6.3,0.6-9.5,0.8c-7.3,0.5-14.6,0.7-21.9,0.4
		c-3.1-0.1-6.1-0.3-9.2-0.5c-2.6-0.2-5.2-0.4-7.8-0.7c-3.1-0.3-6.1-0.7-9.2-1.1c-1.7-0.2-3.3-0.4-4.9-1C6.9,84,3.6,80.4,2.3,75.1
		c-0.5-2-0.8-4-1-6c-0.3-2.8-0.6-5.5-0.9-8.3C0,55.9-0.1,51.1,0.1,46.2c0.1-3.4,0.3-6.8,0.6-10.2c0.3-3.6,0.7-7.2,1.5-10.7
		C3.7,19,7.6,15.1,14,13.6c2-0.5,4.1-0.6,6.1-0.9c3-0.4,6.1-0.7,9.1-1c3.3-0.3,6.6-0.5,9.9-0.7C42.7,10.9,46.3,10.8,50.3,10.7z
		 M49.9,82.2c0,0,0-0.1,0-0.1c1.6,0,3.2,0,4.8,0c1.6,0,3.2-0.1,4.8-0.2c1.9-0.1,3.7-0.2,5.6-0.3c2.1-0.1,4.1-0.3,6.2-0.5
		c2.2-0.2,4.3-0.4,6.4-0.7c2-0.2,4-0.6,6-0.8c3.5-0.4,6.4-3.1,7-6.6c1-5.3,1.5-10.7,1.8-16.1c0.2-4.8,0.2-9.6,0-14.4
		c-0.3-5.2-0.8-10.3-1.7-15.4c-0.6-3.5-3.3-6.1-6.8-6.6c-2.8-0.4-5.6-0.8-8.4-1.1c-3.5-0.4-7.1-0.7-10.6-1c-4-0.3-8-0.4-12-0.5
		c-6.1-0.1-12.2,0.1-18.3,0.5c-2.9,0.2-5.8,0.4-8.7,0.8c-3.4,0.4-6.7,0.8-10,1.3c-3.4,0.5-6.1,2.9-6.8,6.3C8.4,30.2,8,33.7,7.7,37.1
		c-0.2,3.1-0.4,6.2-0.5,9.3C7,52,7.2,57.5,7.8,63.1c0.3,3.2,0.8,6.4,1.3,9.6c0.6,3.5,2.6,5.8,6,6.7c1.4,0.4,2.8,0.5,4.2,0.6
		c3,0.4,5.9,0.8,8.9,1c3.4,0.3,6.7,0.6,10.1,0.7C42.2,82,46,82.1,49.9,82.2z"/>
	<path d="M71.4,50c-11.9,6-23.8,11.9-35.6,17.8c0-11.9,0-23.7,0-35.6C47.6,38.1,59.4,44.1,71.4,50z"/>
</g>
</svg>
