<?xml version="1.0" encoding="utf-8"?>
<!-- Generator: Adobe Illustrator 19.2.0, SVG Export Plug-In . SVG Version: 6.00 Build 0)  -->
<svg version="1.1" id="Layer_1" xmlns="http://www.w3.org/2000/svg" xmlns:xlink="http://www.w3.org/1999/xlink" x="0px" y="0px"
	 viewBox="0 0 100 100" style="enable-background:new 0 0 100 100;" xml:space="preserve">
<style type="text/css">
	.st0{fill-rule:evenodd;clip-rule:evenodd;fill:#231F20;}
	.st1{fill-rule:evenodd;clip-rule:evenodd;fill:#020202;}
</style>
<g>
	<path class="st0" d="M50.9,10.7c11.1,0.3,23,0.8,34.8,2.9c6.6,1.2,11.2,6.1,12.3,12.8c2.6,15.9,2.6,31.9,0,47.8
		c-1,6.3-5.9,11.4-12.1,12.4C71,88.9,56,89.8,40.9,89.1c-8.4-0.4-16.7-1.1-25-2.3C7.3,85.7,2.7,80.5,1.4,71.1c-2-15-2-29.9,0.5-44.8
		C3,19.7,7.6,14.9,14.2,13.6c1.8-0.4,3.7-0.7,5.5-0.9C29.8,11.5,39.9,10.8,50.9,10.7z M50,17.8c-11.4,0.1-22.8,1-34.2,2.6
		c-3.5,0.5-6.1,3-6.9,6.6c-1,4.7-1.4,9.5-1.7,14.4C6.6,52,7,62.6,9,73.2c0.7,3.7,3.4,6.1,7.1,6.6c22.6,3.4,45.2,3.3,67.8,0
		c3.7-0.5,6.3-3,7-6.7c1-4.7,1.4-9.5,1.7-14.4C93.4,48.1,92.9,37.5,91,27c-0.7-3.8-3.4-6.2-7-6.7C72.7,18.7,61.4,17.8,50,17.8z"/>
	<path class="st1" d="M36.8,68.2c0-12.3,0-24.2,0-36.4C49,37.9,61,43.9,73.2,50C61,56.1,49,62.1,36.8,68.2z"/>
</g>
</svg>
