<?xml version="1.0" encoding="utf-8"?>
<!-- Generator: Adobe Illustrator 19.2.0, SVG Export Plug-In . SVG Version: 6.00 Build 0)  -->
<svg version="1.1" id="Layer_1" xmlns="http://www.w3.org/2000/svg" xmlns:xlink="http://www.w3.org/1999/xlink" x="0px" y="0px"
	 viewBox="0 0 249.5 72.7" style="enable-background:new 0 0 249.5 72.7;" xml:space="preserve">
<title>logo</title>
<path d="M36.9,71.5V40.3h-0.2l-7.3,31.3c-2.9,0-5.7,0-8.5,0c-0.4-0.2-0.6-0.6-0.7-1c-1.5-5.9-2.9-11.8-4.3-17.7c-1-4-1.9-8-2.9-12
	c-0.1-0.3-0.2-0.6-0.4-0.9v31.5H0V1.3c0.3,0,0.7-0.1,1-0.1c3.5,0,7,0,10.6,0c0.6-0.1,1.2,0.3,1.3,0.9c0,0,0,0.1,0,0.1
	c3.8,14.8,7.6,29.5,11.5,44.3c0.1,0.3,0.2,0.5,0.4,1.1l2.8-10.9c2.9-11.4,5.8-22.8,8.7-34.2c0.1-0.8,0.8-1.4,1.6-1.4
	c0.1,0,0.1,0,0.2,0c3.7,0.1,7.4,0,11.2,0v70.3H36.9z"/>
<path d="M83.4,36.3c0-6.9,0-13.8,0-20.6c0-1.7,0.2-3.4,0.5-5.1c0.8-4.7,4.3-8.5,9-9.6c4.7-1.3,9.6-1.3,14.3,0
	c5.2,1.3,9,5.7,9.3,11.1c0.1,1.3,0.2,2.6,0.2,4c0,13.6,0,27.3,0,40.9c0,1.8-0.2,3.7-0.6,5.5c-1.2,5.2-4.6,8.3-9.7,9.5
	C102.3,73,97.9,73,93.6,72c-6.3-1.6-10-6.1-10.1-12.7C83.3,51.6,83.5,44,83.4,36.3L83.4,36.3L83.4,36.3z M103.9,36.4
	c0-0.6,0-1.1,0-1.7c0-6.5,0-13,0-19.6c0-1.5-0.4-2.8-1.8-3.5c-2.9-1.4-5.6,0.2-5.7,3.4c0,0.3,0,0.6,0,0.8c0,13.6,0,27.2,0,40.8
	c0,0.5,0,1,0.1,1.4c0.3,2.2,1.6,3.3,3.8,3.2s3.6-1.3,3.7-3.5c0-0.5,0-1,0-1.6C103.9,49.7,103.9,43,103.9,36.4L103.9,36.4z"/>
<path d="M149.6,36.3c0-6.9,0-13.8,0-20.6c0-1.7,0.2-3.4,0.5-5.1c0.8-4.7,4.3-8.4,8.9-9.6c4.7-1.4,9.7-1.4,14.4,0
	c5.2,1.3,9,5.8,9.3,11.1c0.1,1.4,0.2,2.7,0.2,4.1c0,13.6,0,27.2,0,40.8c0,1.8-0.2,3.7-0.6,5.5c-1.2,5.3-4.7,8.3-9.8,9.6
	c-4.2,1-8.5,1-12.7,0c-6.3-1.5-10.1-6.1-10.2-12.8C149.5,51.6,149.7,43.9,149.6,36.3L149.6,36.3L149.6,36.3z M170.1,36.3
	c0-2.7,0-5.4,0-8.2c0-4.4,0-8.7,0-13.1c0.2-1.4-0.6-2.7-1.8-3.4c-2.9-1.4-5.6,0.2-5.8,3.4c0,0.3,0,0.6,0,0.8c0,13.6,0,27.3,0,40.9
	c0,0.5,0,1,0.1,1.4c0.3,2.1,1.6,3.2,3.8,3.2s3.6-1.2,3.7-3.4c0-0.5,0-1,0-1.6C170.1,49.8,170.1,43,170.1,36.3L170.1,36.3z"/>
<path d="M249.3,25.2h-12.7c0-0.5,0-1.1,0-1.6c0-2.8,0-5.6,0-8.4c0-3.2-2.9-5-5.8-3.4c-0.7,0.6-1.3,1.3-1.6,2.2
	c-0.2,0.6-0.3,1.3-0.2,1.9c0,13.7,0,27.3,0,41c0,0.4,0,0.8,0,1.2c0.2,2.3,1.6,3.5,4,3.4s3.6-1.3,3.6-3.6c0-5.2,0-10.4,0-15.8h-3.2
	V30.8h16.1c0,0.4,0.1,0.7,0.1,1.1c0,8.5,0,17,0,25.5c0,1.7-0.2,3.4-0.6,5c-1.2,5.3-4.7,8.3-9.8,9.5c-4.2,1-8.5,1-12.7,0
	c-6.2-1.5-9.8-5.9-10.2-12.4c-0.1-1.3-0.1-2.6-0.1-3.8c0-13.3,0-26.6,0-39.8c0-1.7,0.1-3.3,0.4-5c0.7-5,4.5-9,9.5-10
	c4.5-1.2,9.3-1.2,13.9,0.1c5.5,1.5,8.9,5.4,9.3,11C249.5,16.4,249.3,20.7,249.3,25.2z"/>
</svg>
