<?xml version="1.0" encoding="utf-8"?>
<!-- Generator: Adobe Illustrator 16.0.0, SVG Export Plug-In . SVG Version: 6.00 Build 0)  -->
<!DOCTYPE svg PUBLIC "-//W3C//DTD SVG 1.1//EN" "http://www.w3.org/Graphics/SVG/1.1/DTD/svg11.dtd">
<svg version="1.1" id="Layer_1" xmlns="http://www.w3.org/2000/svg" xmlns:xlink="http://www.w3.org/1999/xlink" x="0px" y="0px"
	 width="851.57px" height="686.416px" viewBox="0 0 851.57 686.416" enable-background="new 0 0 851.57 686.416"
	 xml:space="preserve">
<g id="Layer_1_1_">
</g>
<g id="Layer_2">
</g>
<g id="Layer_3">
</g>
<g id="Layer_4">
</g>
<g id="Layer_5">
</g>
<g id="Layer_6">
</g>
<g id="Layer_7">
</g>
<g id="Layer_8">
</g>
<g id="Layer_9">
</g>
<g id="Layer_12">
	<g id="Layer_11">
	</g>
	<g id="Layer_10">
	</g>
</g>
<g id="Layer_13">
</g>
<g id="Layer_14">
</g>
<g id="Layer_15">
	<g>
		<path fill="#FFFFFF" d="M7.735,398.111l48.057-227.892l6.515-30.899l1.496,31.413v0.002c0.268,3.625,0.638,7.369,1.03,11.06
			c0.391,3.7,0.85,7.4,1.314,11.097c0.961,7.391,2.063,14.769,3.31,22.114c2.479,14.699,5.572,29.285,9.305,43.679
			c3.764,14.379,8.224,28.562,13.675,42.299c1.411,3.409,2.761,6.851,4.312,10.188c1.473,3.378,3.094,6.677,4.717,9.974
			c1.708,3.243,3.354,6.529,5.233,9.662c1.781,3.199,3.779,6.241,5.728,9.318l-9.204,3.629c-0.192-1.246-0.255-2.057-0.34-3.031
			c-0.062-0.926-0.129-1.855-0.153-2.758c-0.079-1.827-0.079-3.618-0.056-5.406c0.039-3.58,0.283-7.105,0.577-10.618
			c0.62-7.024,1.67-13.944,2.938-20.804c1.235-6.873,2.864-13.632,4.535-20.377l2.736-10.044c1-3.315,1.949-6.653,2.996-9.953
			l3.217-9.87l3.415-9.796c2.401-6.479,4.821-12.953,7.427-19.343c1.251-3.222,2.6-6.395,3.949-9.57
			c1.363-3.167,2.644-6.376,4.081-9.508c2.797-6.302,5.613-12.595,8.593-18.808c2.885-6.265,6.007-12.401,9.045-18.581
			c3.092-6.155,6.292-12.25,9.47-18.355c3.292-6.039,6.494-12.137,9.866-18.131c3.408-5.974,6.686-12.03,10.199-17.939
			c3.506-5.911,6.879-11.912,10.499-17.753c3.595-5.855,7.082-11.787,10.772-17.581c3.678-5.803,7.292-11.653,11.026-17.417
			l11.253-17.268l11.886,7.985l-11.368,16.963c-3.772,5.666-7.421,11.408-11.14,17.109c-3.731,5.691-7.252,11.512-10.888,17.262
			c-3.658,5.741-7.063,11.623-10.61,17.428c-3.551,5.802-6.864,11.738-10.308,17.601c-3.409,5.881-6.643,11.854-9.976,17.781
			c-3.211,5.983-6.447,11.96-9.573,17.985c-3.07,6.055-6.229,12.069-9.143,18.195c-3.016,6.082-5.863,12.235-8.695,18.399
			c-1.457,3.066-2.749,6.196-4.129,9.293c-1.366,3.101-2.73,6.203-3.998,9.343c-2.64,6.239-5.089,12.546-7.521,18.863l-3.465,9.531
			l-3.262,9.593c-1.063,3.205-2.023,6.436-3.04,9.651l-2.785,9.718c-1.701,6.507-3.363,13.03-4.63,19.606
			c-1.304,6.569-2.389,13.172-3.056,19.766c-0.317,3.294-0.59,6.595-0.664,9.855c-0.042,1.63-0.063,3.258-0.013,4.849
			c0.007,0.805,0.057,1.583,0.098,2.365c0.048,0.724,0.13,1.622,0.19,2.066l3.021,23.376l-12.226-19.746
			c-2.037-3.291-4.121-6.551-5.958-9.938c-1.946-3.333-3.632-6.786-5.38-10.208c-1.654-3.461-3.308-6.924-4.8-10.446
			c-1.572-3.492-2.928-7.062-4.349-10.607c-5.469-14.254-9.872-28.831-13.547-43.551c-3.646-14.727-6.619-29.589-8.969-44.537
			c-1.181-7.474-2.217-14.968-3.109-22.481c-0.43-3.76-0.853-7.521-1.209-11.291c-0.359-3.784-0.688-7.518-0.932-11.386l0,0
			l8.013,0.513L23.613,401.175L7.735,398.111z"/>
	</g>
	<g>
		<path fill="#FFFFFF" d="M392.597,303.471c0,0-0.049,0.645-0.148,1.894c-0.126,1.281-0.184,3.026-0.499,5.588
			c-0.549,5.145-1.586,12.404-4.086,21.633c-1.354,4.572-2.972,9.634-5.359,14.95c-2.411,5.291-5.461,10.876-9.422,16.427
			c-7.786,11.141-19.849,21.907-35.335,28.73c-15.38,6.926-33.917,9.862-52.591,8.394c-9.628-0.731-19.248-2.69-28.767-6.345
			c-9.435-3.707-18.685-8.939-26.648-16.082c-7.953-7.109-14.622-15.959-19.175-25.81c-2.292-4.916-4.119-10.038-5.532-15.258
			c-1.374-5.235-2.281-10.559-2.894-15.902c-0.554-5.35-0.738-10.719-0.661-16.069c0.139-5.323,0.531-10.733,1.142-15.916
			c1.296-10.684,3.51-21.043,6.532-31.24c6.09-20.322,15.124-39.686,26.904-56.909c5.903-8.597,12.569-16.615,20.038-23.693
			c7.472-7.053,15.785-13.22,24.986-17.507c9.178-4.3,19.242-6.585,29.202-5.811c2.235,0.226,4.829,0.583,7.142,1.113
			c2.333,0.613,4.639,1.261,6.828,2.179c4.376,1.814,8.434,4.104,12.084,6.768c7.305,5.324,13.408,11.475,18.833,17.822
			c5.355,6.418,9.788,13.22,13.6,19.995c3.788,6.791,7.049,13.536,9.697,20.155c2.72,6.592,4.923,13.015,6.719,19.145
			c3.574,12.266,5.659,23.321,6.624,32.514c1.063,9.194,1.111,16.51,1.052,21.488c-0.075,4.983-0.252,7.646-0.252,7.646
			L392.597,303.471z M381.868,302.426c0,0,0.333-2.483,0.718-7.175c0.369-4.693,0.722-11.607,0.62-20.462
			c-0.212-8.84-0.742-19.664-2.877-31.941c-1.032-6.14-2.503-12.622-4.438-19.37c-2.05-6.701-4.521-13.697-7.912-20.647
			c-3.381-6.939-7.534-13.922-12.848-20.376c-5.208-6.497-11.821-12.418-19.739-16.293c-7.898-3.958-16.581-5.929-25.523-6.249
			c-8.709-0.326-17.764,2.035-25.935,6.279c-8.229,4.232-15.734,10.237-22.476,17.125c-6.762,6.896-12.728,14.761-18.082,23.096
			c-10.675,16.716-18.729,35.52-23.878,54.956c-2.569,9.697-4.41,19.67-5.315,29.455c-0.46,5.053-0.601,9.914-0.575,14.83
			c0.101,4.889,0.436,9.732,1.098,14.483c0.713,4.737,1.675,9.391,3.017,13.869c1.384,4.465,3.092,8.761,5.155,12.812
			c4.107,8.128,9.816,15.107,16.488,20.683c6.671,5.605,14.446,9.588,22.453,12.385c4.033,1.348,8.129,2.41,12.24,3.255
			c2.059,0.404,4.12,0.75,6.182,1.06c2.107,0.313,3.895,0.521,6.096,0.725c16.702,1.606,32.375-0.568,45.427-6.063
			c13.091-5.41,23.154-14.047,30.211-23.159c7.115-9.147,11.251-18.724,14.084-26.76c2.692-8.103,4.059-14.902,4.782-19.349
			c0.416-2.23,0.6-4.194,0.787-5.396c0.169-1.239,0.255-1.879,0.255-1.879L381.868,302.426z"/>
	</g>
	<g>
		<path fill="#FFFFFF" d="M587.432,303.894c0,0-0.049,0.646-0.151,1.896c-0.129,1.279-0.189,3.025-0.514,5.585
			c-0.554,5.143-1.606,12.398-4.123,21.618c-1.359,4.567-2.99,9.622-5.382,14.926c-2.409,5.287-5.463,10.863-9.424,16.405
			c-7.793,11.114-19.813,21.889-35.282,28.728c-15.361,6.941-33.892,9.899-52.564,8.465c-9.641-0.703-19.212-2.876-28.723-6.477
			c-9.43-3.677-18.692-8.875-26.642-16.016c-7.952-7.1-14.618-15.941-19.171-25.782c-2.293-4.911-4.119-10.026-5.534-15.245
			c-1.374-5.228-2.285-10.551-2.897-15.892c-0.558-5.349-0.742-10.715-0.667-16.063c0.139-5.321,0.527-10.729,1.137-15.912
			c1.285-10.682,3.511-21.04,6.542-31.229c6.077-20.32,15.1-39.689,26.87-56.917c5.937-8.573,12.573-16.608,20.045-23.682
			c7.466-7.057,15.777-13.222,24.974-17.513c9.177-4.301,19.238-6.591,29.199-5.82c2.239,0.2,4.829,0.628,7.109,1.289
			c2.315,0.7,4.557,1.535,6.676,2.572c4.255,2.056,8.129,4.449,11.902,6.806c7.686,4.528,14.209,10.438,19.715,16.791
			c5.578,6.32,10.059,13.175,14.003,19.939c7.797,13.625,12.755,27.295,16.21,39.614c3.438,12.349,5.244,23.459,6.143,32.665
			c0.949,9.209,0.929,16.525,0.86,21.503c-0.102,4.986-0.297,7.644-0.297,7.644L587.432,303.894z M576.706,302.851
			c0,0,0.318-2.485,0.679-7.177c0.36-4.693,0.646-11.609,0.434-20.447c-0.284-8.826-1.091-19.596-3.359-31.789
			c-2.274-12.168-6.02-25.805-12.554-39.706c-3.249-6.948-7.354-13.876-12.446-20.429c-5.134-6.494-11.318-12.657-18.859-17.326
			c-3.801-2.276-8.152-3.688-12.562-4.451c-2.204-0.397-4.432-0.616-6.64-0.81c-2.252-0.185-4.276-0.274-6.688-0.38
			c-8.711-0.33-17.765,2.029-25.94,6.271c-8.232,4.228-15.739,10.232-22.485,17.118c-6.76,6.901-12.757,14.748-18.077,23.106
			c-10.685,16.712-18.75,35.512-23.913,54.948c-2.56,9.703-4.39,19.678-5.309,29.465c-0.46,5.053-0.604,9.914-0.58,14.833
			c0.098,4.89,0.432,9.738,1.089,14.49c0.712,4.741,1.672,9.393,3.013,13.877c1.381,4.468,3.089,8.769,5.151,12.824
			c4.108,8.136,9.817,15.127,16.494,20.713c6.682,5.608,14.443,9.629,22.459,12.451c8.036,2.737,16.516,4.139,24.558,4.908
			c16.702,1.641,32.381-0.513,45.454-5.99c13.109-5.392,23.219-14.021,30.265-23.163c7.117-9.163,11.246-18.749,14.059-26.804
			c2.674-8.109,4.028-14.913,4.742-19.362c0.411-2.228,0.59-4.194,0.776-5.396c0.165-1.241,0.25-1.881,0.25-1.881L576.706,302.851z"
			/>
	</g>
	<g>
		<path fill="#FFFFFF" d="M770.589,173.878c0,0-0.363-0.247-1.067-0.722c-0.734-0.479-1.854-1.183-3.352-2.042
			c-3.002-1.71-7.541-4.073-13.612-6.336c-6.062-2.243-13.684-4.397-22.599-5.267c-8.891-0.874-19.102-0.379-29.624,2.656
			c-10.519,2.998-21.255,8.518-31.137,16.386c-4.969,3.894-9.705,8.387-14.255,13.262c-2.248,2.454-4.489,5.012-6.605,7.651
			c-2.234,2.751-4.322,5.469-6.393,8.251c-8.313,11.249-15.82,23.645-21.808,36.932c-5.993,13.263-10.433,27.459-12.55,41.921
			c-2.133,14.435-1.946,29.167,1.146,42.897c3.065,13.719,9.177,26.317,17.633,36.038c8.432,9.745,19.109,16.614,30.458,19.857
			c2.828,0.824,5.688,1.45,8.55,1.843c1.425,0.239,2.864,0.342,4.283,0.493c1.382,0.075,2.955,0.204,4.152,0.21
			c1.54,0.021,3.065,0.041,4.577,0.062c1.554,0.044,2.787-0.103,4.181-0.138c2.683-0.036,5.449-0.44,8.121-0.697
			c10.646-1.549,20.262-4.411,28.336-8.145c8.085-3.711,14.711-7.959,20.014-11.696c5.32-3.738,9.155-7.178,11.834-9.448
			c2.607-2.366,3.996-3.627,3.996-3.627l3.295,3.076c0,0-1.26,1.473-3.617,4.229c-2.45,2.681-6.065,6.62-11.197,11.151
			c-5.095,4.563-11.746,9.693-20.169,14.465c-8.4,4.761-18.705,9.056-30.557,11.448c-2.983,0.493-5.96,1.122-9.218,1.394
			c-1.569,0.147-3.312,0.406-4.785,0.457c-1.513,0.077-3.035,0.154-4.573,0.231c-3.542,0.11-6.787-0.036-10.28-0.407
			c-3.448-0.339-6.942-0.953-10.425-1.821c-6.98-1.697-13.96-4.523-20.442-8.498c-6.47-3.981-12.46-9.084-17.457-15.111
			c-2.512-2.997-4.848-6.178-6.93-9.526c-2.053-3.367-3.888-6.876-5.506-10.49c-3.241-7.229-5.555-14.89-7.043-22.699
			c-3.016-15.639-2.678-31.857,0.098-47.431c2.767-15.6,7.983-30.592,14.732-44.42c6.748-13.85,15-26.573,23.992-38.006
			c2.275-2.878,4.589-5.701,6.853-8.323c2.352-2.761,4.741-5.375,7.198-7.922c4.943-5.045,10.102-9.703,15.531-13.749
			c10.793-8.162,22.599-13.921,34.137-16.858c11.541-2.985,22.63-3.199,32.136-1.992c9.54,1.205,17.556,3.722,23.895,6.271
			c6.348,2.573,11.055,5.19,14.195,7.098c1.568,0.958,2.747,1.745,3.54,2.294c0.806,0.58,1.222,0.879,1.222,0.879L770.589,173.878z"
			/>
	</g>
	<g display="none">
		<path display="inline" fill="#FFFFFF" d="M538.699,340.72c0,0,2.893,0.112,8.506,0.175c5.587,0.061,13.806,0.075,24.273-0.167
			c20.918-0.525,50.897-1.896,86.426-6.83c17.744-2.506,36.88-5.917,56.692-11.032c19.771-5.142,40.344-11.923,59.985-22.02
			c9.785-5.067,19.322-10.984,27.979-18.111c8.648-7.111,16.421-15.453,22.306-25.07c2.926-4.812,5.412-9.907,7.299-15.247
			c0.97-2.66,1.76-5.39,2.43-8.15c0.353-1.381,0.622-2.777,0.904-4.173c0.042-0.214,0.01,0.002,0.028-0.125l0.043-0.279
			c0.016-0.154-0.013,0.036-0.002,0.057c-0.001,0.038,0.002,0.073,0.012,0.113c0.004,0.113,0.024,0.225,0.055,0.331
			c0.04,0.184,0.119,0.432,0.229,0.639c0.181,0.39,0.354,0.619,0.734,1.023c0.774,0.753,1.856,1.073,2.473,1.044
			c0.272,0.006,0.437-0.008,0.649-0.056c0.1-0.014,0.189-0.039,0.281-0.073c0.195-0.064,0.104-0.059-0.044,0.042
			c-0.656,0.403-1.728,1.348-2.652,2.287c-0.958,0.96-1.908,2.007-2.845,3.089c-1.873,2.174-3.683,4.477-5.445,6.833
			c-3.522,4.717-6.864,9.648-10.082,14.666c-12.841,20.123-23.932,41.491-33.963,62.894c-10.002,21.435-18.854,43.013-26.731,64.154
			c-15.751,42.302-27.571,82.849-36.442,117.892c-8.872,35.057-14.804,64.633-18.685,85.377
			c-1.925,10.378-3.349,18.547-4.288,24.122c-0.93,5.579-1.425,8.555-1.425,8.555l-1.192-0.186c0,0,0.444-2.986,1.275-8.584
			c0.841-5.597,2.118-13.799,3.86-24.221c3.511-20.834,8.923-50.558,17.189-85.857c8.263-35.291,19.391-76.177,34.465-118.996
			c7.54-21.402,16.06-43.281,25.765-65.088c9.744-21.786,20.541-43.564,33.306-64.379c3.207-5.199,6.545-10.328,10.147-15.336
			c1.806-2.505,3.673-4.975,5.688-7.403c1.012-1.213,2.06-2.414,3.205-3.604c1.185-1.198,2.295-2.354,4.153-3.603
			c0.482-0.31,1.061-0.655,1.961-0.976c0.272-0.086,0.542-0.16,0.822-0.223c0.4-0.064,0.753-0.111,1.211-0.109
			c0.979,0.002,2.467,0.397,3.493,1.447c0.536,0.515,0.769,0.936,1.063,1.473c0.176,0.384,0.32,0.811,0.408,1.174
			c0.061,0.293,0.111,0.59,0.142,0.888l0.028,0.674c0.008,0.397-0.05,0.963-0.077,1.179l-0.11,0.709
			c-0.288,1.552-0.567,3.103-0.93,4.638c-0.697,3.074-1.532,6.12-2.56,9.099c-2.014,5.972-4.691,11.694-7.859,17.079
			c-6.367,10.774-14.769,20.03-23.967,27.834c-9.219,7.826-19.251,14.25-29.462,19.739c-20.489,10.926-41.645,18.232-61.89,23.833
			c-20.283,5.573-39.772,9.349-57.826,12.184c-36.136,5.587-66.534,7.44-87.804,8.301c-10.646,0.41-19.017,0.527-24.745,0.549
			c-5.7,0.023-8.842-0.045-8.842-0.045L538.699,340.72z"/>
	</g>
	<g>
		<path fill="#FFFFFF" d="M228.117,630.646c0,0-0.234-0.546-0.688-1.603c-0.447-1.072-1.105-2.665-1.969-4.746
			c-1.654-4.114-4.025-10.135-6.782-17.858c-2.802-7.713-5.96-17.142-9.359-28.019c-3.385-10.879-6.904-23.234-10.417-36.788
			c-3.42-13.578-6.948-28.33-10.002-44.072c-3.211-15.703-5.903-32.403-8.359-49.708c-1.033-8.681-2.344-17.472-3.123-26.434
			c-0.442-4.475-0.887-8.977-1.335-13.5c-0.328-4.535-0.659-9.093-0.991-13.669c-0.77-9.141-1.021-18.394-1.44-27.663
			c-0.258-4.633-0.235-9.289-0.307-13.94l-0.17-13.968c0.205-9.313,0.244-18.633,0.635-27.902c0.242-4.632,0.485-9.257,0.726-13.867
			c0.123-2.304,0.243-4.603,0.363-6.903c0.146-2.295,0.382-4.581,0.57-6.862c0.864-9.13,1.394-18.209,2.647-27.113
			c1.142-8.911,2.037-17.741,3.575-26.338c1.449-8.605,2.588-17.113,4.399-25.319c0.829-4.115,1.651-8.188,2.464-12.208
			c0.404-2.011,0.809-4.009,1.208-5.994c0.433-1.979,0.944-3.927,1.407-5.872c1.916-7.764,3.693-15.335,5.568-22.615
			c2.084-7.226,4.098-14.206,6.033-20.911c0.483-1.672,0.962-3.33,1.435-4.969c0.544-1.619,1.08-3.219,1.611-4.802
			c1.061-3.161,2.1-6.253,3.11-9.267c1.011-3.011,1.995-5.946,2.953-8.799c0.477-1.425,0.951-2.832,1.414-4.216
			c0.526-1.364,1.041-2.708,1.55-4.028c2.038-5.285,3.941-10.229,5.704-14.804c1.776-4.566,3.312-8.798,5.02-12.49
			c6.524-14.887,10.249-23.395,10.249-23.395l4.548,2.063c0,0-3.539,8.508-9.728,23.399c-1.626,3.688-3.072,7.916-4.745,12.477
			c-1.66,4.563-3.456,9.498-5.375,14.773c-0.479,1.318-0.966,2.659-1.459,4.018c-0.437,1.38-0.877,2.783-1.323,4.204
			c-0.893,2.843-1.813,5.769-2.759,8.771c-0.945,3-1.914,6.079-2.906,9.23c-0.494,1.576-0.998,3.168-1.505,4.781
			c-0.438,1.631-0.881,3.28-1.326,4.947c-1.789,6.668-3.653,13.61-5.58,20.798c-1.72,7.238-3.333,14.762-5.083,22.469
			c-0.422,1.93-0.891,3.865-1.284,5.829c-0.357,1.972-0.718,3.955-1.081,5.948c-0.727,3.991-1.463,8.029-2.208,12.109
			c-1.639,8.14-2.601,16.573-3.873,25.095c-1.362,8.515-2.075,17.256-3.04,26.071c-1.071,8.804-1.423,17.787-2.108,26.807
			c-0.141,2.256-0.333,4.514-0.434,6.779c-0.077,2.27-0.152,4.543-0.229,6.819c-0.151,4.551-0.305,9.117-0.458,13.689
			c-0.212,9.146-0.079,18.339-0.111,27.523l0.431,13.768c0.157,4.585,0.22,9.17,0.561,13.732c0.588,9.135,1.004,18.235,1.935,27.231
			c0.412,4.501,0.821,8.984,1.229,13.444c0.524,4.448,1.048,8.873,1.566,13.272c0.93,8.809,2.393,17.445,3.564,25.97
			c2.741,16.991,5.698,33.367,9.15,48.756c3.292,15.423,7.035,29.858,10.647,43.124c3.703,13.243,7.38,25.3,10.896,35.886
			c3.529,10.583,6.788,19.743,9.658,27.192c2.825,7.472,5.226,13.248,6.881,17.145c0.835,1.913,1.474,3.379,1.906,4.368
			c0.451,0.99,0.684,1.506,0.684,1.506L228.117,630.646z"/>
	</g>
	<g>
		<path fill="#FFFFFF" d="M16.02,401.582l48.056-227.893l6.516-30.899l1.496,31.413v0.002c0.269,3.624,0.638,7.369,1.031,11.059
			c0.39,3.701,0.848,7.402,1.313,11.098c0.962,7.391,2.063,14.765,3.311,22.114c2.479,14.699,5.571,29.285,9.305,43.68
			c3.763,14.378,8.223,28.561,13.674,42.298c1.41,3.408,2.761,6.851,4.313,10.188c1.473,3.379,3.096,6.677,4.717,9.975
			c1.708,3.243,3.354,6.529,5.233,9.661c1.78,3.199,3.778,6.241,5.728,9.32l-9.204,3.627c-0.193-1.245-0.254-2.057-0.339-3.032
			c-0.063-0.925-0.129-1.855-0.154-2.756c-0.079-1.828-0.079-3.618-0.054-5.406c0.039-3.58,0.283-7.103,0.576-10.618
			c0.62-7.024,1.669-13.944,2.939-20.805c1.234-6.873,2.864-13.632,4.533-20.376l2.738-10.042c1-3.317,1.946-6.653,2.993-9.955
			l3.22-9.871l3.415-9.795c2.401-6.479,4.82-12.953,7.427-19.346c1.251-3.219,2.599-6.393,3.949-9.567
			c1.362-3.167,2.644-6.376,4.081-9.51c2.797-6.301,5.612-12.595,8.593-18.808c2.885-6.265,6.007-12.4,9.044-18.583
			c3.09-6.151,6.291-12.247,9.471-18.353c3.292-6.038,6.494-12.136,9.866-18.13c3.408-5.974,6.686-12.029,10.198-17.938
			c3.507-5.914,6.88-11.912,10.5-17.753c3.595-5.855,7.081-11.787,10.772-17.582c3.678-5.801,7.29-11.652,11.026-17.417
			l11.253-17.267l11.886,7.984L238.073,69.26c-3.773,5.668-7.423,11.409-11.141,17.11c-3.729,5.692-7.251,11.513-10.886,17.262
			c-3.658,5.742-7.066,11.623-10.61,17.427c-3.551,5.802-6.864,11.738-10.308,17.601c-3.411,5.881-6.644,11.856-9.978,17.782
			c-3.209,5.984-6.445,11.958-9.571,17.985c-3.07,6.055-6.229,12.069-9.143,18.195c-3.018,6.081-5.863,12.235-8.695,18.399
			c-1.458,3.066-2.749,6.194-4.129,9.293c-1.366,3.1-2.732,6.202-3.998,9.344c-2.642,6.238-5.089,12.546-7.521,18.862l-3.464,9.531
			l-3.262,9.592c-1.064,3.206-2.023,6.436-3.04,9.651l-2.786,9.716c-1.699,6.51-3.362,13.032-4.629,19.611
			c-1.303,6.568-2.389,13.17-3.056,19.765c-0.318,3.296-0.59,6.596-0.664,9.854c-0.042,1.63-0.064,3.258-0.014,4.85
			c0.008,0.807,0.056,1.583,0.099,2.364c0.046,0.726,0.129,1.623,0.19,2.069l3.021,23.376l-12.226-19.749
			c-2.037-3.288-4.121-6.552-5.958-9.937c-1.947-3.333-3.632-6.786-5.38-10.208c-1.655-3.462-3.309-6.924-4.8-10.445
			c-1.573-3.494-2.929-7.062-4.349-10.606c-5.469-14.256-9.872-28.833-13.547-43.553c-3.646-14.727-6.619-29.589-8.969-44.537
			c-1.181-7.474-2.217-14.968-3.108-22.482c-0.43-3.759-0.853-7.521-1.209-11.29c-0.359-3.785-0.688-7.519-0.932-11.387l0,0
			l8.011,0.514L31.897,404.645L16.02,401.582z"/>
	</g>
	<g>
		<path fill="#FFFFFF" d="M402.561,303.471c0,0-0.051,0.645-0.15,1.894c-0.126,1.281-0.181,3.026-0.499,5.588
			c-0.546,5.145-1.584,12.404-4.083,21.633c-1.357,4.572-2.975,9.634-5.36,14.95c-2.413,5.291-5.461,10.876-9.422,16.427
			c-7.786,11.141-19.848,21.907-35.334,28.73c-15.382,6.926-33.918,9.862-52.59,8.394c-9.629-0.731-19.249-2.69-28.769-6.345
			c-9.434-3.707-18.684-8.939-26.646-16.082c-7.953-7.109-14.623-15.959-19.176-25.81c-2.292-4.916-4.12-10.038-5.532-15.258
			c-1.374-5.235-2.282-10.559-2.895-15.902c-0.554-5.35-0.737-10.719-0.661-16.069c0.14-5.323,0.532-10.733,1.143-15.916
			c1.295-10.684,3.51-21.043,6.532-31.24c6.089-20.322,15.124-39.686,26.904-56.909c5.903-8.597,12.568-16.615,20.039-23.693
			c7.472-7.053,15.784-13.22,24.986-17.507c9.177-4.3,19.242-6.585,29.202-5.811c2.235,0.226,4.828,0.583,7.141,1.113
			c2.334,0.613,4.64,1.261,6.83,2.179c4.375,1.814,8.434,4.104,12.083,6.768c7.306,5.324,13.408,11.475,18.835,17.822
			c5.355,6.418,9.787,13.22,13.599,19.995c3.788,6.791,7.051,13.536,9.696,20.155c2.72,6.592,4.923,13.015,6.721,19.145
			c3.571,12.266,5.656,23.321,6.621,32.514c1.064,9.194,1.114,16.51,1.052,21.488c-0.075,4.983-0.252,7.646-0.252,7.646
			L402.561,303.471z M391.832,302.426c0,0,0.333-2.483,0.717-7.175c0.369-4.693,0.72-11.607,0.62-20.462
			c-0.211-8.84-0.742-19.664-2.877-31.941c-1.03-6.14-2.503-12.622-4.437-19.37c-2.049-6.701-4.521-13.697-7.912-20.647
			c-3.381-6.939-7.534-13.922-12.847-20.376c-5.209-6.497-11.822-12.418-19.739-16.293c-7.899-3.958-16.582-5.929-25.524-6.249
			c-8.708-0.326-17.762,2.035-25.935,6.279c-8.229,4.232-15.733,10.237-22.475,17.125c-6.763,6.896-12.728,14.761-18.082,23.096
			c-10.676,16.716-18.729,35.52-23.879,54.956c-2.569,9.697-4.41,19.67-5.315,29.455c-0.461,5.053-0.6,9.914-0.574,14.83
			c0.102,4.889,0.437,9.732,1.098,14.483c0.713,4.737,1.675,9.391,3.017,13.869c1.385,4.465,3.092,8.761,5.156,12.812
			c4.106,8.128,9.816,15.107,16.487,20.683c6.671,5.605,14.446,9.588,22.454,12.385c4.031,1.348,8.128,2.41,12.239,3.255
			c2.06,0.404,4.121,0.75,6.182,1.06c2.108,0.313,3.896,0.521,6.096,0.725c16.702,1.606,32.375-0.568,45.427-6.063
			c13.093-5.41,23.155-14.047,30.21-23.159c7.116-9.147,11.251-18.724,14.084-26.76c2.692-8.103,4.062-14.902,4.783-19.349
			c0.416-2.23,0.599-4.194,0.787-5.396c0.167-1.239,0.254-1.879,0.254-1.879L391.832,302.426z"/>
	</g>
	<g>
		<path fill="#FFFFFF" d="M597.396,303.894c0,0-0.049,0.646-0.15,1.896c-0.13,1.279-0.192,3.025-0.514,5.585
			c-0.556,5.143-1.607,12.398-4.122,21.618c-1.361,4.567-2.992,9.622-5.382,14.926c-2.413,5.287-5.464,10.863-9.425,16.405
			c-7.794,11.114-19.815,21.889-35.282,28.728c-15.362,6.941-33.893,9.899-52.564,8.465c-9.644-0.703-19.214-2.876-28.725-6.477
			c-9.428-3.677-18.692-8.875-26.643-16.016c-7.949-7.1-14.617-15.941-19.169-25.782c-2.294-4.911-4.118-10.026-5.533-15.245
			c-1.376-5.228-2.285-10.551-2.899-15.892c-0.557-5.349-0.741-10.715-0.667-16.063c0.139-5.321,0.529-10.729,1.137-15.912
			c1.285-10.682,3.514-21.04,6.542-31.229c6.077-20.32,15.099-39.689,26.87-56.917c5.936-8.573,12.57-16.608,20.045-23.682
			c7.465-7.057,15.775-13.222,24.973-17.513c9.175-4.301,19.239-6.591,29.198-5.82c2.241,0.2,4.83,0.628,7.11,1.289
			c2.314,0.7,4.558,1.535,6.679,2.572c4.25,2.056,8.125,4.449,11.898,6.806c7.685,4.528,14.211,10.438,19.715,16.791
			c5.578,6.32,10.061,13.175,14.004,19.939c7.796,13.625,12.753,27.295,16.21,39.614c3.439,12.349,5.243,23.459,6.142,32.665
			c0.948,9.209,0.93,16.525,0.86,21.503c-0.101,4.986-0.294,7.644-0.294,7.644L597.396,303.894z M586.668,302.851
			c0,0,0.32-2.485,0.679-7.177c0.361-4.693,0.649-11.609,0.435-20.447c-0.284-8.826-1.092-19.596-3.359-31.789
			c-2.273-12.168-6.02-25.805-12.555-39.706c-3.246-6.948-7.354-13.876-12.443-20.429c-5.134-6.494-11.321-12.657-18.858-17.326
			c-3.804-2.276-8.153-3.688-12.565-4.451c-2.204-0.397-4.428-0.616-6.636-0.81c-2.252-0.185-4.277-0.274-6.691-0.38
			c-8.707-0.33-17.766,2.029-25.94,6.271c-8.232,4.228-15.74,10.232-22.486,17.118c-6.757,6.901-12.753,14.748-18.076,23.106
			c-10.681,16.712-18.747,35.512-23.913,54.948c-2.561,9.703-4.39,19.678-5.309,29.465c-0.46,5.053-0.604,9.914-0.579,14.833
			c0.099,4.89,0.432,9.738,1.087,14.49c0.712,4.741,1.672,9.393,3.015,13.877c1.382,4.468,3.088,8.769,5.151,12.824
			c4.107,8.136,9.816,15.127,16.494,20.713c6.683,5.608,14.444,9.629,22.458,12.451c8.037,2.737,16.516,4.139,24.562,4.908
			c16.698,1.641,32.378-0.513,45.451-5.99c13.109-5.392,23.218-14.021,30.266-23.163c7.115-9.163,11.245-18.749,14.059-26.804
			c2.673-8.109,4.028-14.913,4.741-19.362c0.41-2.228,0.59-4.194,0.775-5.396c0.166-1.241,0.25-1.881,0.25-1.881L586.668,302.851z"
			/>
	</g>
	<g>
		<path fill="#FFFFFF" d="M770.436,173.752c0,0-0.326-0.258-0.958-0.757c-0.669-0.508-1.685-1.255-3.072-2.164
			c-2.763-1.811-6.991-4.321-12.742-6.643c-5.733-2.306-13.034-4.435-21.581-4.966c-8.521-0.556-18.26,0.608-28.096,4.361
			c-9.854,3.696-19.689,9.923-28.825,18.037c-4.561,4.071-8.973,8.584-13.207,13.461c-1.032,1.227-2.066,2.462-3.11,3.703
			c-1.045,1.305-2.096,2.621-3.152,3.941c-2.006,2.607-4,5.248-5.963,8.009c-7.815,10.986-14.867,23.04-20.479,35.926
			c-5.569,12.886-9.745,26.596-11.741,40.56c-2.013,13.938-1.906,28.145,0.868,41.458c2.734,13.307,8.27,25.628,16.051,35.345
			c7.782,9.708,17.65,16.847,28.346,20.511c5.335,1.848,10.817,2.87,16.213,3.209c1.317,0.101,2.771,0.103,3.956,0.152
			c1.452,0.008,2.962,0.035,4.194-0.011c2.584-0.039,5.27-0.23,7.794-0.521c10.18-1.19,19.179-4.228,26.688-8.153
			c7.532-3.912,13.576-8.536,18.508-12.431c4.907-3.949,8.589-7.352,11.127-9.642c2.524-2.318,3.873-3.556,3.873-3.556l3.291,3.079
			c0,0-1.179,1.429-3.391,4.105c-2.24,2.654-5.589,6.511-10.178,11.216c-4.589,4.699-10.571,10.17-18.496,15.325
			c-3.958,2.571-8.425,5.006-13.385,7.079c-4.964,2.058-10.436,3.66-16.226,4.745c-2.915,0.547-5.826,0.97-8.96,1.241
			c-1.627,0.164-3.009,0.233-4.474,0.33c-1.73,0.035-3.22,0.071-4.87,0.024c-6.463-0.155-13.194-1.119-19.88-3.146
			c-13.402-3.919-26.324-12.668-35.416-24.737c-9.266-11.977-14.92-26.68-17.543-41.733c-2.67-15.111-2.265-30.71,0.361-45.742
			c2.614-15.055,7.531-29.542,13.826-42.995c6.343-13.446,14.114-25.847,22.594-37.042c2.11-2.789,4.312-5.53,6.513-8.216
			c1.095-1.288,2.185-2.569,3.27-3.841c1.145-1.296,2.283-2.582,3.419-3.86c4.582-5.011,9.371-9.659,14.34-13.86
			c9.947-8.375,20.752-14.873,31.661-18.618c10.894-3.791,21.687-4.757,30.981-3.866c9.33,0.864,17.142,3.411,23.224,6.068
			c6.098,2.678,10.521,5.489,13.443,7.533c1.467,1.022,2.552,1.872,3.28,2.461c0.742,0.627,1.126,0.951,1.126,0.951L770.436,173.752
			z"/>
	</g>
	<g display="none">
		<path display="inline" fill="#FFFFFF" d="M548.67,340.72c0,0.002,2.808,0.11,8.259,0.159c5.435,0.048,13.436,0.036,23.621-0.249
			c20.355-0.624,49.544-2.165,84.056-7.479c17.233-2.688,35.796-6.355,54.968-11.741c9.585-2.687,19.297-5.868,29.011-9.616
			c9.715-3.738,19.408-8.102,28.807-13.304c9.428-5.15,18.486-11.242,26.856-18.3c4.132-3.58,8.093-7.389,11.773-11.48
			c3.614-4.139,7.01-8.496,9.985-13.15c2.92-4.685,5.538-9.58,7.657-14.717c0.546-1.279,0.979-2.602,1.475-3.901
			c0.514-1.295,0.943-2.619,1.319-3.961l0.604-2.002l0.302-1.002l0.121-0.399c0.042-0.175,0.101-0.409,0.078-0.347
			c0.037,0.033-0.053-0.21,0.075,0.653c0.075,0.316,0.14,0.565,0.438,1.081c0.296,0.496,0.797,1.051,1.571,1.456
			c1.415,0.709,2.467,0.332,2.656,0.307c0.631-0.214,0.457-0.212,0.391-0.146c-0.125,0.089-0.299,0.223-0.498,0.394
			c-1.669,1.484-3.544,3.762-5.238,5.946c-1.721,2.229-3.384,4.563-5.007,6.936c-3.242,4.756-6.315,9.681-9.289,14.68
			c-11.835,20.04-22.08,41.14-31.339,62.236c-9.238,21.119-17.415,42.321-24.714,63.063c-14.584,41.5-25.606,81.141-33.954,115.367
			c-8.336,34.237-14.012,63.076-17.744,83.3c-1.857,10.115-3.233,18.075-4.149,23.511c-0.905,5.434-1.389,8.332-1.389,8.332
			l-1.192-0.181c0,0,0.43-2.911,1.238-8.366c0.812-5.456,2.048-13.446,3.72-23.607c3.367-20.309,8.521-49.286,16.246-83.755
			c7.737-34.454,18.06-74.415,31.955-116.399c6.953-20.983,14.79-42.471,23.72-63.941c8.951-21.456,18.892-42.943,30.602-63.631
			c2.944-5.165,6.005-10.276,9.291-15.289c1.646-2.506,3.344-4.989,5.164-7.438c1.875-2.464,3.633-4.828,6.284-7.308
			c0.35-0.316,0.738-0.643,1.207-0.987c0.538-0.345,0.982-0.745,2.315-1.173c0.537-0.146,1.98-0.535,3.727,0.318
			c0.941,0.496,1.57,1.172,1.961,1.834c0.393,0.666,0.5,1.101,0.629,1.589c0.272,1.583,0.091,2.086,0,2.832l-0.151,0.728
			c-0.088,0.39-0.115,0.424-0.173,0.654l-0.312,1.105l-0.626,2.204c-0.393,1.476-0.843,2.937-1.382,4.368
			c-0.519,1.436-0.979,2.893-1.551,4.305c-2.238,5.682-5.029,11.106-8.151,16.292c-3.184,5.153-6.812,9.969-10.674,14.526
			c-3.921,4.506-8.133,8.688-12.515,12.604c-8.861,7.717-18.398,14.331-28.228,19.909c-9.81,5.631-19.856,10.342-29.886,14.384
			c-10.024,4.052-20.011,7.496-29.842,10.421c-19.659,5.857-38.602,9.905-56.167,12.931c-35.158,5.98-64.8,8.013-85.541,8.977
			c-10.378,0.456-18.548,0.596-24.131,0.635c-5.578,0.038-8.643-0.033-8.643-0.033L548.67,340.72z"/>
	</g>
	<g>
		<path fill="#FFFFFF" d="M239.094,626.31c0,0-0.239-0.539-0.704-1.581c-0.452-1.056-1.123-2.629-1.998-4.677
			c-1.682-4.061-4.088-9.997-6.888-17.621c-2.843-7.61-6.057-16.915-9.499-27.657c-3.45-10.739-6.992-22.952-10.574-36.342
			c-3.45-13.423-7.052-27.998-10.134-43.568c-1.675-7.756-3.035-15.796-4.534-23.985c-0.773-4.09-1.325-8.269-2.011-12.463
			c-0.622-4.203-1.386-8.426-1.907-12.723c-1.079-8.583-2.357-17.285-3.161-26.152c-0.448-4.427-0.899-8.884-1.352-13.357
			c-0.333-4.488-0.669-8.999-1.007-13.526c-0.8-9.045-0.99-18.203-1.463-27.374c-0.265-4.586-0.186-9.194-0.295-13.799
			c-0.05-4.604-0.161-9.215-0.164-13.823l0.247-13.823c0.102-4.605,0.098-9.206,0.401-13.791c0.234-4.585,0.471-9.158,0.706-13.723
			c0.125-2.28,0.248-4.558,0.371-6.83c0.198-2.269,0.393-4.533,0.588-6.791c0.809-9.04,1.427-18.016,2.653-26.826
			c1.087-8.823,2.065-17.551,3.582-26.059c1.393-8.522,2.618-16.926,4.402-25.049c0.825-4.072,1.639-8.1,2.443-12.08
			c0.407-1.989,0.812-3.965,1.217-5.929c0.477-1.947,0.95-3.883,1.419-5.803c1.915-7.678,3.624-15.182,5.56-22.364
			c2.067-7.148,4.065-14.057,5.984-20.687c0.903-3.328,1.979-6.531,3.052-9.656c1.051-3.13,2.078-6.188,3.08-9.167
			c1.002-2.979,1.979-5.883,2.927-8.705c0.482-1.408,0.923-2.808,1.423-4.165c0.521-1.35,1.034-2.678,1.537-3.986
			c2.017-5.229,3.907-10.122,5.653-14.645c1.746-4.521,3.295-8.699,4.986-12.35c6.457-14.73,10.147-23.147,10.147-23.147
			l4.548,2.063c0,0-3.501,8.419-9.628,23.153c-1.609,3.652-3.064,7.823-4.71,12.338c-1.643,4.515-3.423,9.397-5.322,14.616
			c-0.475,1.305-0.958,2.628-1.449,3.973c-0.47,1.355-0.879,2.75-1.331,4.155c-0.885,2.814-1.799,5.707-2.734,8.677
			c-0.938,2.971-1.896,6.017-2.88,9.133c-0.999,3.113-2.005,6.302-2.837,9.616c-1.771,6.597-3.616,13.466-5.526,20.579
			c-1.78,7.142-3.327,14.6-5.077,22.221c-0.428,1.905-0.86,3.828-1.293,5.762c-0.362,1.949-0.726,3.909-1.091,5.881
			c-0.72,3.947-1.45,7.943-2.185,11.983c-1.613,8.051-2.658,16.381-3.876,24.821c-1.336,8.425-2.139,17.062-3.045,25.79
			c-1.049,8.715-1.484,17.588-2.115,26.516c-0.149,2.232-0.301,4.468-0.452,6.709c-0.079,2.246-0.158,4.494-0.237,6.746
			c-0.145,4.504-0.293,9.02-0.438,13.543c-0.212,4.524-0.124,9.063-0.134,13.603l0.017,13.625c0.089,4.543,0.288,9.084,0.422,13.622
			c0.196,4.535,0.205,9.071,0.55,13.587c0.638,9.031,0.993,18.041,1.953,26.935c0.417,4.451,0.831,8.886,1.244,13.297
			c0.53,4.399,1.058,8.775,1.583,13.125c0.957,8.712,2.381,17.256,3.602,25.68c0.592,4.213,1.427,8.357,2.115,12.479
			c0.752,4.113,1.373,8.21,2.214,12.219c1.629,8.03,3.113,15.902,4.906,23.496c3.319,15.243,7.131,29.491,10.767,42.597
			c3.765,13.07,7.463,24.972,11.041,35.412c3.569,10.44,6.878,19.467,9.785,26.81c2.861,7.362,5.297,13.045,6.972,16.884
			c0.845,1.882,1.494,3.322,1.93,4.294c0.457,0.974,0.692,1.477,0.692,1.477L239.094,626.31z"/>
	</g>
	<g>
		<path fill="#FFFFFF" d="M828.364,266.624c-0.106,0.089-0.914,0.714-2.894,2.53c-1.936,1.769-4.73,4.565-8.123,8.323
			c-3.409,3.746-7.328,8.56-11.544,14.319c-4.249,5.735-8.679,12.513-13.113,20.163c-4.504,7.61-8.815,16.212-12.997,25.49
			c-1.014,2.333-2.043,4.701-3.083,7.097c-0.992,2.418-1.922,4.899-2.905,7.39c-2.043,4.952-3.651,10.196-5.525,15.444
			c-3.328,10.636-6.553,21.728-8.984,33.223c-0.616,2.87-1.307,5.737-1.868,8.639c-0.525,2.913-1.053,5.836-1.578,8.761
			c-1.162,5.841-1.835,11.783-2.713,17.698c-0.465,2.959-0.774,5.935-1.062,8.907c-0.307,2.976-0.61,5.947-0.916,8.913
			c-0.612,5.935-0.835,11.88-1.27,17.764c-0.561,11.784-0.846,23.413-0.629,34.671c0.041,2.813,0,5.604,0.11,8.37
			c0.12,2.765,0.238,5.501,0.356,8.21c0.275,5.416,0.36,10.728,0.849,15.874c0.403,5.151,0.798,10.165,1.175,15.015
			c0.395,4.848,1.026,9.51,1.498,14.001c0.532,4.482,0.924,8.796,1.51,12.869c0.595,4.073,1.159,7.938,1.688,11.569
			c0.528,3.634,1.025,7.033,1.48,10.179c0.559,3.126,1.07,6,1.536,8.595c1.853,10.386,2.912,16.321,2.912,16.321l-4.278,0.886
			c0,0-1.216-5.938-3.342-16.331c-0.534-2.6-1.122-5.477-1.761-8.61c-0.542-3.152-1.126-6.561-1.753-10.204
			c-0.623-3.644-1.29-7.521-1.993-11.609c-0.694-4.089-1.197-8.426-1.848-12.931c-0.59-4.512-1.343-9.202-1.87-14.083
			c-0.506-4.886-1.03-9.939-1.566-15.13c-0.628-5.188-0.848-10.556-1.264-16.026c-0.19-2.735-0.382-5.502-0.57-8.296
			c-0.185-2.794-0.214-5.625-0.328-8.474c-0.506-11.399-0.514-23.202-0.246-35.2c0.29-5.991,0.364-12.047,0.835-18.108
			c0.232-3.031,0.467-6.066,0.702-9.105c0.219-3.044,0.464-6.087,0.856-9.116c0.738-6.063,1.281-12.16,2.315-18.166
			c0.465-3.01,0.931-6.016,1.394-9.014c0.501-2.99,1.132-5.951,1.688-8.913c2.2-11.859,5.228-23.368,8.389-34.44
			c1.801-5.476,3.332-10.937,5.315-16.128c0.953-2.608,1.851-5.204,2.821-7.742c1.019-2.52,2.026-5.011,3.021-7.464
			c4.104-9.768,8.383-18.868,12.909-26.986c4.459-8.151,8.956-15.428,13.316-21.646c4.333-6.243,8.402-11.504,12.007-15.681
			c3.588-4.187,6.596-7.354,8.79-9.468c2.14-2.079,3.676-3.365,3.573-3.272L828.364,266.624z"/>
	</g>
	<g>
		<path fill="#FFFFFF" d="M837.797,276.82c-0.093,0.084-0.882,0.76-2.753,2.609c-1.835,1.812-4.485,4.638-7.706,8.407
			c-3.24,3.758-6.953,8.57-11.005,14.26c-4.078,5.674-8.277,12.389-12.619,19.863c-4.338,7.482-8.524,15.898-12.695,24.927
			c-1.928,4.587-4.087,9.225-5.903,14.138c-0.934,2.443-1.936,4.893-2.844,7.405c-0.881,2.524-1.765,5.072-2.658,7.642
			c-0.934,2.561-1.735,5.184-2.539,7.832c-0.812,2.648-1.631,5.312-2.452,7.993c-0.726,2.714-1.455,5.439-2.189,8.181
			c-0.742,2.74-1.49,5.497-2.089,8.3c-1.272,5.59-2.632,11.21-3.628,16.937c-0.542,2.854-1.085,5.713-1.628,8.575l-1.314,8.652
			c-0.41,2.89-0.938,5.763-1.255,8.664c-0.331,2.901-0.663,5.795-0.993,8.689c-0.755,5.771-1.111,11.566-1.566,17.305
			c-0.536,5.737-0.687,11.452-0.928,17.096c-0.096,2.822-0.272,5.627-0.305,8.415c-0.016,2.79-0.029,5.559-0.041,8.304
			c-0.016,2.745-0.031,5.474-0.044,8.172c-0.019,2.699,0.136,5.369,0.192,8.015c0.195,5.287,0.24,10.471,0.545,15.503
			c0.667,10.063,1.168,19.593,2.179,28.348c0.442,4.385,0.867,8.586,1.27,12.582c0.531,3.985,1.035,7.759,1.51,11.311
			c0.471,3.552,0.916,6.873,1.323,9.948c0.461,3.066,0.967,5.867,1.38,8.41c1.694,10.152,2.662,15.957,2.662,15.957l-4.286,0.845
			c0,0-1.127-5.811-3.095-15.979c-0.479-2.547-1.063-5.353-1.604-8.431c-0.493-3.083-1.026-6.418-1.596-9.98
			c-0.569-3.566-1.175-7.36-1.814-11.356c-0.512-4.021-1.051-8.243-1.611-12.653c-1.245-8.809-2.002-18.416-2.939-28.575
			c-0.437-5.08-0.623-10.316-0.956-15.665c-0.126-2.677-0.352-5.379-0.402-8.111c-0.058-2.737-0.114-5.494-0.173-8.28
			c-0.057-2.785-0.115-5.595-0.174-8.421c-0.042-2.83,0.063-5.683,0.088-8.548c0.097-5.737,0.103-11.548,0.494-17.396
			c0.313-5.85,0.525-11.753,1.14-17.658c0.261-2.956,0.523-5.918,0.784-8.886c0.244-2.966,0.706-5.914,1.05-8.875l1.117-8.878
			c0.478-2.941,0.96-5.88,1.438-8.814c0.87-5.886,2.108-11.682,3.268-17.451c0.541-2.896,1.233-5.743,1.922-8.577
			c0.684-2.837,1.362-5.663,2.035-8.468c0.778-2.783,1.547-5.548,2.313-8.293c0.755-2.749,1.516-5.478,2.404-8.144
			c0.856-2.676,1.705-5.332,2.544-7.962c0.872-2.62,1.841-5.181,2.74-7.732c1.752-5.128,3.857-10.003,5.742-14.812
			c4.085-9.492,8.223-18.371,12.562-26.321c4.339-7.945,8.572-15.114,12.732-21.234c4.133-6.135,7.956-11.359,11.348-15.515
			c3.38-4.169,6.203-7.341,8.245-9.474c2.004-2.098,3.416-3.393,3.326-3.304L837.797,276.82z"/>
	</g>
	<g>
		<path fill="#FFFFFF" d="M545.537,336.847c0,0,0.269,0.061,0.788,0.185c0.507,0.113,1.261,0.278,2.243,0.496
			c2.051,0.424,5.112,1.032,9.077,1.656c3.955,0.651,8.812,1.307,14.409,1.911c5.598,0.615,11.947,1.082,18.895,1.44
			c6.947,0.258,14.497,0.481,22.479,0.25c3.996-0.022,8.09-0.296,12.284-0.465c4.179-0.302,8.465-0.557,12.803-1.007
			c4.336-0.456,8.754-0.89,13.192-1.559c4.46-0.551,8.94-1.342,13.456-2.128c4.527-0.74,9.023-1.82,13.581-2.718
			c4.505-1.119,9.055-2.143,13.547-3.393c4.467-1.327,9.007-2.451,13.394-3.989c4.419-1.445,8.832-2.858,13.109-4.543
			c2.153-0.806,4.299-1.609,6.435-2.408c2.099-0.884,4.19-1.762,6.269-2.636c2.076-0.88,4.14-1.755,6.188-2.623
			c2.01-0.958,4.006-1.907,5.984-2.848c1.982-0.941,3.946-1.877,5.892-2.803c1.905-1.009,3.789-2.009,5.657-3
			c1.864-0.991,3.71-1.975,5.531-2.941c1.831-0.959,3.547-2.064,5.292-3.071c3.435-2.098,6.905-3.946,10.038-6.083
			c3.172-2.083,6.236-4.095,9.177-6.028c2.9-1.999,5.592-4.036,8.201-5.909c2.601-1.885,5.084-3.655,7.281-5.495
			c2.233-1.798,4.323-3.478,6.258-5.029c1.952-1.536,3.715-2.982,5.227-4.377c6.17-5.467,9.695-8.59,9.695-8.59l3.911,4.031
			c0,0-3.453,3.325-9.496,9.144c-1.483,1.484-3.219,3.032-5.139,4.68c-1.905,1.666-3.969,3.468-6.171,5.392
			c-2.167,1.972-4.625,3.885-7.202,5.921c-2.584,2.023-5.258,4.22-8.138,6.389c-2.931,2.104-5.984,4.297-9.146,6.564
			c-3.127,2.325-6.598,4.37-10.042,6.669c-1.748,1.105-3.47,2.317-5.31,3.381c-1.831,1.073-3.688,2.161-5.563,3.26
			c-1.88,1.099-3.779,2.208-5.696,3.33c-1.964,1.036-3.947,2.081-5.944,3.138c-2.004,1.056-4.022,2.12-6.055,3.191
			c-2.077,0.983-4.168,1.976-6.275,2.972c-2.109,0.991-4.231,1.99-6.362,2.992c-2.171,0.916-4.353,1.839-6.542,2.765
			c-4.359,1.922-8.859,3.578-13.375,5.262c-4.483,1.778-9.127,3.14-13.708,4.707c-4.604,1.488-9.281,2.748-13.915,4.1
			c-4.686,1.133-9.32,2.443-13.988,3.408c-4.663,1.011-9.289,2.023-13.903,2.791c-4.596,0.888-9.17,1.535-13.674,2.192
			c-4.502,0.655-8.95,1.107-13.305,1.601c-4.36,0.363-8.629,0.821-12.8,1.019c-8.33,0.587-16.23,0.686-23.532,0.713
			c-7.299-0.073-13.999-0.29-19.938-0.692c-5.937-0.394-11.119-0.877-15.395-1.399c-4.272-0.494-7.645-1.017-9.975-1.399
			c-1.201-0.212-2.124-0.378-2.746-0.485c-0.605-0.121-0.917-0.181-0.917-0.181L545.537,336.847z"/>
	</g>
	<g>
		<path fill="#FFFFFF" d="M544.483,343.062c0,0,1.074,0.119,3.087,0.336c2.062,0.203,5.142,0.465,9.093,0.697
			c3.945,0.256,8.772,0.424,14.314,0.546c5.547,0.067,11.816,0.102,18.657-0.126c6.846-0.199,14.262-0.584,22.092-1.249
			c7.835-0.604,16.063-1.595,24.563-2.762c8.483-1.257,17.236-2.723,26.048-4.628c2.201-0.474,4.414-0.95,6.631-1.425
			c2.206-0.541,4.417-1.083,6.629-1.626c4.447-1.026,8.837-2.327,13.257-3.541c4.419-1.214,8.75-2.696,13.12-4.027
			c4.318-1.474,8.609-2.98,12.852-4.512c4.187-1.667,8.395-3.219,12.464-4.946c4.037-1.802,8.101-3.435,11.972-5.303
			c3.854-1.901,7.718-3.64,11.375-5.582c3.644-1.966,7.246-3.823,10.688-5.755c3.401-2.005,6.705-3.957,9.905-5.844
			c3.15-1.963,6.128-3.969,9.026-5.838c2.928-1.828,5.574-3.808,8.13-5.637c2.536-1.857,5.014-3.525,7.215-5.262
			c4.366-3.514,8.284-6.462,11.33-9.095c6.069-5.313,9.536-8.349,9.536-8.349l3.888,4.05c0,0-3.4,3.243-9.354,8.919
			c-3,2.819-6.86,5.996-11.18,9.776c-2.176,1.869-4.634,3.683-7.147,5.69c-2.536,1.984-5.168,4.123-8.081,6.123
			c-2.888,2.039-5.852,4.224-9.004,6.373c-3.197,2.075-6.507,4.222-9.906,6.426c-3.447,2.132-7.065,4.196-10.726,6.375
			c-3.677,2.151-7.565,4.107-11.456,6.229c-3.903,2.092-8.003,3.949-12.084,5.979c-4.118,1.958-8.375,3.736-12.624,5.639
			c-4.303,1.763-8.658,3.501-13.048,5.208c-4.438,1.56-8.853,3.282-13.35,4.724c-4.502,1.447-8.982,2.976-13.522,4.231
			c-2.264,0.657-4.521,1.312-6.772,1.968c-2.27,0.588-4.532,1.174-6.784,1.761c-9.016,2.351-17.99,4.249-26.708,5.917
			c-8.731,1.579-17.211,2.962-25.294,3.929c-8.079,1.033-15.752,1.757-22.852,2.265c-7.096,0.537-13.626,0.779-19.419,0.953
			c-5.801,0.118-10.862,0.151-15.053,0.059c-4.188-0.064-7.497-0.209-9.783-0.335c-1.176-0.073-2.075-0.128-2.684-0.17
			c-0.591-0.041-0.896-0.067-0.896-0.067L544.483,343.062z"/>
	</g>
	<polygon fill="#FFFFFF" points="70.587,142.949 62.303,139.482 63.66,180.056 	"/>
	<polygon fill="#FFFFFF" points="112.747,347.244 124.436,368.211 116.186,364.735 	"/>
	<path fill="#FFFFFF" d="M99.551,338.01c0,0,15.667,26.273,17.81,28.725c3.032,3.46,4.358,3.853,7.769,4.94l-1.072-6.62"/>
	<polygon fill="#FFFFFF" points="24.172,403.113 7.119,401.104 8.005,397.176 24.935,399.659 	"/>
	<polygon fill="#FFFFFF" points="248.051,59.626 226.782,44.775 230.452,39.206 250.876,53.451 	"/>
	<polygon fill="#FFFFFF" points="254.018,619.87 228.468,631.597 226.335,626.559 251.806,615.06 	"/>
	<polygon fill="#FFFFFF" points="835.235,279.425 816.605,258.062 823.471,251.732 842.102,273.098 	"/>
	<polyline fill="#FFFFFF" points="758.043,627.875 770.208,632.29 769.28,627.008 756.945,622.765 	"/>
	<polygon fill="#FFFFFF" points="545.533,337.089 528.734,360.965 544.965,361.311 547.301,337.405 	"/>
</g>
</svg>
