<?xml version="1.0" encoding="utf-8"?>
<!-- Generator: Adobe Illustrator 19.2.0, SVG Export Plug-In . SVG Version: 6.00 Build 0)  -->
<svg version="1.1" id="Layer_1" xmlns="http://www.w3.org/2000/svg" xmlns:xlink="http://www.w3.org/1999/xlink" x="0px" y="0px"
	 viewBox="0 0 100 100" style="enable-background:new 0 0 100 100;" xml:space="preserve">
<g>
	<path d="M55.7,42.2c1.3-1.5,2.4-2.9,3.6-4.2c3.2-3.4,7.2-5.2,11.8-5.8c4.4-0.6,8.8-0.2,13.1,1.3c5,1.8,8.7,5.2,11.3,9.8
		c3,5.4,3.9,11.2,3.9,17.3c0,12,0,24.1,0,36.1c0,0.2,0,0.4,0,0.7c-7.1,0-14.1,0-21.3,0c0-0.4,0-0.7,0-1c0-10.9,0-21.8,0-32.6
		c0-2.8-0.2-5.6-1.2-8.3c-1.7-4.7-5.5-7-10.4-6.7c-5.1,0.3-9,4-10.3,8.4c-0.5,1.6-0.5,3.4-0.5,5.2c0,11.3,0,22.6,0,33.9
		c0,0.3,0,0.7,0,1.1c-7.1,0-14.1,0-21.2,0c0-21.3,0-42.5,0-64c0.3,0,0.6,0,0.9,0c6.5,0,13,0,19.4,0c0.8,0,1,0.2,0.9,1
		c0,2.3,0,4.7,0,7C55.7,41.6,55.7,41.9,55.7,42.2z"/>
	<path d="M22.5,33.4c0,21.4,0,42.7,0,64c-0.3,0-0.6,0-0.8,0c-6.5,0-13,0-19.4,0c-0.8,0-0.9-0.2-0.9-1c0-20.7,0-41.4,0-62.1
		c0-0.7,0.2-1,0.9-1c6.5,0,13,0,19.4,0C22,33.4,22.2,33.4,22.5,33.4z"/>
	<path d="M11.9,24.7c-4.2-0.1-7.7-1.4-10.1-5c-4-6.2-1.1-14.3,6-16.4c4.1-1.2,8.1-1,11.7,1.5c3.6,2.5,4.9,6.2,4.4,10.4
		c-0.5,4.2-2.9,7.2-6.9,8.6c-1.6,0.6-3.3,0.7-5,1.1C11.9,24.8,11.9,24.8,11.9,24.7z"/>
</g>
</svg>
