<svg id="Layer_1" data-name="Layer 1" xmlns="http://www.w3.org/2000/svg" viewBox="0 0 249.5 72.73"><defs><style>.cls-1{fill:#fff;}</style></defs><title>logo</title><path class="cls-1" d="M36.9,71.46V40.29l-0.22,0-7.34,31.3c-2.88,0-5.71,0-8.54,0a1.44,1.44,0,0,1-.73-1c-1.46-5.89-2.87-11.79-4.3-17.69q-1.45-6-2.89-12A1.72,1.72,0,0,0,12.45,40V71.47H0V1.26c0.33,0,.67-0.08,1-0.08,3.52,0,7,0,10.56,0a1.16,1.16,0,0,1,1.36,1.08q5.7,22.16,11.46,44.3c0.07,0.26.17,0.51,0.35,1.06l2.78-10.87c2.91-11.41,5.84-22.82,8.71-34.25A1.48,1.48,0,0,1,38,1.15c3.72,0.07,7.43,0,11.25,0V71.46H36.9Z"/><path class="cls-1" d="M83.39,36.32c0-6.88,0-13.75,0-20.63a27,27,0,0,1,.48-5.11,11.81,11.81,0,0,1,9-9.58,26.2,26.2,0,0,1,14.32,0,12.24,12.24,0,0,1,9.34,11.08,36.56,36.56,0,0,1,.22,3.95q0,20.45,0,40.9a25.72,25.72,0,0,1-.56,5.47c-1.16,5.21-4.56,8.29-9.65,9.54A26.9,26.9,0,0,1,93.6,72c-6.31-1.55-10-6.06-10.12-12.72-0.15-7.63,0-15.27,0-22.91h0Zm20.47,0.08q0-.84,0-1.68,0-9.78,0-19.56c0-1.48-.38-2.79-1.85-3.49-2.94-1.38-5.59.22-5.74,3.45,0,0.28,0,.56,0,0.84q0,20.4,0,40.8a12,12,0,0,0,.06,1.44c0.27,2.21,1.56,3.28,3.84,3.23s3.57-1.27,3.68-3.54c0-.52,0-1,0-1.56Q103.86,46.37,103.86,36.41Z"/><path class="cls-1" d="M149.63,36.29c0-6.88,0-13.75,0-20.63a26.94,26.94,0,0,1,.48-5.11A11.78,11.78,0,0,1,159,1a26.16,26.16,0,0,1,14.44,0,12.24,12.24,0,0,1,9.31,11.1,38.78,38.78,0,0,1,.22,4.07q0,20.39,0,40.78a25.59,25.59,0,0,1-.56,5.47c-1.18,5.26-4.66,8.33-9.79,9.55a27.15,27.15,0,0,1-12.72,0c-6.33-1.51-10.08-6.08-10.21-12.78-0.15-7.63,0-15.27,0-22.91h0Zm20.47,0q0-4.08,0-8.16c0-4.36,0-8.72,0-13.08a3.38,3.38,0,0,0-1.81-3.39c-2.91-1.41-5.61.19-5.77,3.39,0,0.28,0,.56,0,0.84q0,20.46,0,40.92a11.21,11.21,0,0,0,.08,1.43c0.28,2.13,1.55,3.18,3.79,3.15s3.56-1.21,3.71-3.39c0-.52,0-1,0-1.56Q170.1,46.41,170.1,36.33Z"/><path class="cls-1" d="M249.27,25.21H236.58c0-.55,0-1.09,0-1.63,0-2.8,0-5.6,0-8.4,0-3.23-2.91-5-5.77-3.44a4.88,4.88,0,0,0-1.63,2.2,4.54,4.54,0,0,0-.18,1.89q0,20.51,0,41a11.33,11.33,0,0,0,0,1.2c0.25,2.34,1.59,3.48,4,3.36s3.56-1.32,3.58-3.64c0-5.19,0-10.39,0-15.75h-3.25V30.82h16.11c0,0.38.06,0.73,0.06,1.07,0,8.52,0,17,0,25.55a23.3,23.3,0,0,1-.56,5c-1.2,5.26-4.67,8.32-9.81,9.54a27.13,27.13,0,0,1-12.72,0c-6.22-1.49-9.83-5.94-10.21-12.44-0.07-1.28-.07-2.56-0.07-3.84q0-19.91,0-39.83a26.88,26.88,0,0,1,.4-5A12,12,0,0,1,226,.88a26.42,26.42,0,0,1,13.87.1c5.46,1.53,8.92,5.4,9.33,11C249.53,16.35,249.27,20.72,249.27,25.21Z"/></svg>