<?xml version="1.0" encoding="utf-8"?>
<!-- Generator: Adobe Illustrator 16.0.0, SVG Export Plug-In . SVG Version: 6.00 Build 0)  -->
<!DOCTYPE svg PUBLIC "-//W3C//DTD SVG 1.1//EN" "http://www.w3.org/Graphics/SVG/1.1/DTD/svg11.dtd">
<svg version="1.1" id="Layer_1" xmlns="http://www.w3.org/2000/svg" xmlns:xlink="http://www.w3.org/1999/xlink" x="0px" y="0px"
	 width="100px" height="100px" viewBox="0 0 100 100" enable-background="new 0 0 100 100" xml:space="preserve">
<g id="Layer_9">
	<path fill="#FFFFFF" stroke="#FFFFFF" stroke-miterlimit="10" d="M50.119,0.597c0.099,0.034,0.19,0.059,0.277,0.095
		c11.131,4.609,22.261,9.22,33.394,13.829c1.252,0.519,1.254,0.513,1.774,1.775c4.398,10.622,8.799,21.243,13.197,31.864
		c0.201,0.487,0.385,0.982,0.605,1.46c0.117,0.254,0.096,0.467-0.008,0.717c-1.894,4.556-3.777,9.116-5.666,13.674
		c-2.824,6.814-5.65,13.628-8.467,20.446c-0.125,0.302-0.297,0.48-0.601,0.605C74.932,89.07,65.238,93.085,55.548,97.1
		c-1.682,0.696-3.366,1.39-5.044,2.096c-0.264,0.111-0.482,0.115-0.75,0.004c-10.874-4.51-21.75-9.014-32.626-13.518
		c-0.498-0.205-0.988-0.434-1.495-0.615c-0.309-0.112-0.481-0.297-0.606-0.601c-1.971-4.782-3.955-9.562-5.934-14.341
		c-2.731-6.594-5.46-13.188-8.198-19.78c-0.11-0.265-0.113-0.483-0.002-0.75c3.411-8.217,6.813-16.438,10.217-24.658
		c1.306-3.153,2.618-6.304,3.915-9.461c0.124-0.302,0.295-0.481,0.599-0.606C25.872,10.632,36.115,6.385,46.36,2.14
		c1.14-0.473,2.281-0.942,3.42-1.413C49.893,0.682,50.004,0.641,50.119,0.597z M35.815,63.889c4.594-4.595,9.177-9.178,13.74-13.74
		c-6.419,0-12.897,0-19.431,0C32.042,54.779,33.94,59.361,35.815,63.889z M70.132,50.142c-6.547,0-13.021,0-19.446,0
		c4.573,4.572,9.155,9.156,13.752,13.752C66.312,59.359,68.212,54.777,70.132,50.142z M50.313,29.965c0,6.542,0,13.018,0,19.488
		c4.596-4.596,9.175-9.176,13.777-13.78C59.527,33.783,54.945,31.884,50.313,29.965z M49.953,49.456c0-6.482,0-12.956,0-19.496
		c-4.634,1.919-9.224,3.821-13.786,5.71C40.774,40.278,45.354,44.857,49.953,49.456z M49.942,69.968c0-6.542,0-13.021,0-19.421
		c-4.562,4.562-9.145,9.145-13.734,13.732C40.738,66.154,45.313,68.051,49.942,69.968z M64.009,64.294
		c-4.59-4.59-9.172-9.172-13.706-13.706c0,6.373,0,12.848,0,19.383C54.932,68.055,59.514,66.157,64.009,64.294z M30.125,49.782
		c6.542,0,13.02,0,19.417,0c-4.56-4.559-9.143-9.142-13.73-13.729C33.937,40.579,32.043,45.154,30.125,49.782z M64.454,36.085
		c-4.591,4.59-9.17,9.172-13.704,13.705c6.372,0,12.846,0,19.38,0C68.214,45.163,66.314,40.58,64.454,36.085z M48.746,2.169
		c-0.013-0.02-0.026-0.04-0.04-0.061c-10.48,4.341-20.959,8.682-31.439,13.023c0.108,0.087,0.19,0.096,0.271,0.096
		c5.956,0,11.912,0.002,17.867-0.01c0.187,0,0.417-0.111,0.552-0.245c1.671-1.657,3.326-3.33,4.989-4.995
		c2.504-2.505,5.011-5.007,7.516-7.512C48.559,2.37,48.652,2.269,48.746,2.169z M82.982,84.802
		c-0.006-0.024-0.012-0.052-0.018-0.077c-0.1-0.007-0.201-0.02-0.301-0.02c-5.92-0.001-11.84,0-17.758-0.006
		c-0.248,0-0.426,0.068-0.602,0.244c-4.189,4.197-8.386,8.391-12.578,12.586c-0.074,0.076-0.142,0.16-0.213,0.24
		c0.016,0.017,0.028,0.032,0.043,0.049C62.032,93.479,72.509,89.141,82.982,84.802z M97.984,51.383
		c-0.018-0.01-0.034-0.021-0.051-0.029c-0.062,0.051-0.127,0.099-0.184,0.154c-4.229,4.229-8.457,8.454-12.678,12.689
		c-0.113,0.111-0.199,0.307-0.199,0.464c-0.01,5.979-0.008,11.959-0.008,17.938c0,0.069,0.025,0.141,0.057,0.32
		C89.307,72.338,93.646,61.859,97.984,51.383z M15.291,82.823c0.026-0.007,0.052-0.013,0.079-0.021
		c0.006-0.102,0.018-0.203,0.018-0.307c0.001-5.943,0.002-11.887-0.008-17.83c0-0.166-0.098-0.372-0.218-0.491
		c-4.204-4.219-8.416-8.429-12.627-12.639c-0.067-0.067-0.141-0.126-0.211-0.188c-0.019,0.01-0.037,0.021-0.056,0.03
		C6.608,61.859,10.949,72.341,15.291,82.823z M17.292,84.704c-0.005,0.034-0.01,0.067-0.014,0.101
		c10.478,4.34,20.955,8.68,31.433,13.021c-0.036-0.134-0.103-0.214-0.176-0.286c-4.202-4.203-8.403-8.408-12.615-12.602
		c-0.132-0.133-0.371-0.224-0.561-0.224c-5.403-0.012-10.807-0.01-16.209-0.01C18.53,84.704,17.911,84.704,17.292,84.704z
		 M2.271,48.542c0.02,0.017,0.039,0.034,0.059,0.051c0.079-0.072,0.161-0.141,0.236-0.217c4.195-4.194,8.389-8.39,12.588-12.58
		c0.177-0.177,0.239-0.358,0.238-0.604c-0.006-5.908-0.004-11.817-0.005-17.726c0-0.113-0.01-0.226-0.016-0.338
		c-0.027-0.006-0.054-0.013-0.081-0.019C10.951,27.587,6.611,38.065,2.271,48.542z M84.968,17.12
		c-0.034,0.003-0.067,0.007-0.102,0.01c0,0.126,0,0.251,0,0.377c0,5.87,0.002,11.741-0.009,17.611c0,0.314,0.097,0.533,0.314,0.752
		c4.166,4.154,8.324,8.315,12.484,12.475c0.086,0.086,0.178,0.168,0.266,0.252c0.021-0.015,0.043-0.03,0.062-0.045
		C93.646,38.075,89.309,27.598,84.968,17.12z M51.54,2.107c-0.013,0.023-0.022,0.046-0.037,0.068
		c0.039,0.044,0.074,0.091,0.117,0.133c4.243,4.245,8.485,8.49,12.739,12.727c0.109,0.11,0.312,0.185,0.47,0.185
		c5.967,0.009,11.935,0.008,17.899,0.007c0.08,0,0.16-0.02,0.24-0.031c0.002-0.023,0.004-0.046,0.004-0.07
		C72.495,10.787,62.02,6.446,51.54,2.107z M70.632,50.115c1.367,3.302,2.701,6.521,4.039,9.753c0.119-0.045,0.187-0.067,0.252-0.095
		c3.104-1.289,6.211-2.58,9.32-3.857c0.258-0.105,0.33-0.241,0.327-0.506c-0.01-1.607-0.004-3.217-0.004-4.823
		c-0.002-0.47-0.002-0.471-0.475-0.471c-4.332,0-8.664,0-12.996,0C70.966,50.115,70.837,50.115,70.632,50.115z M25.58,59.875
		c1.353-3.268,2.686-6.486,4.031-9.735c-0.145-0.012-0.215-0.023-0.287-0.023c-4.428-0.001-8.856,0.001-13.285-0.007
		c-0.303,0-0.357,0.118-0.356,0.383c0.008,1.644,0.01,3.288-0.002,4.932c-0.002,0.271,0.089,0.397,0.34,0.5
		c1.972,0.804,3.938,1.625,5.906,2.44C23.13,58.861,24.334,59.359,25.58,59.875z M49.977,70.473
		c-3.289,1.361-6.516,2.699-9.754,4.041c0.045,0.11,0.066,0.166,0.089,0.221c1.294,3.127,2.592,6.256,3.878,9.389
		c0.098,0.236,0.232,0.288,0.462,0.287c1.632-0.008,3.264-0.014,4.896,0.004c0.356,0.004,0.438-0.112,0.438-0.45
		c-0.011-4.356-0.008-8.712-0.008-13.067C49.977,70.779,49.977,70.662,49.977,70.473z M49.951,29.45
		c0.012-0.164,0.025-0.267,0.025-0.371c0-4.392-0.002-8.785,0.006-13.176c0.002-0.307-0.104-0.384-0.395-0.382
		c-1.619,0.012-3.239,0.015-4.858-0.002c-0.314-0.003-0.463,0.096-0.582,0.386c-0.931,2.282-1.879,4.558-2.822,6.835
		c-0.365,0.882-0.729,1.764-1.107,2.679C43.471,26.766,46.691,28.099,49.951,29.45z M50.302,70.482
		c-0.012,0.147-0.024,0.23-0.024,0.312c-0.002,4.416,0.002,8.832-0.007,13.248c-0.001,0.288,0.093,0.368,0.372,0.367
		c1.646-0.012,3.289-0.016,4.934,0.002c0.297,0.003,0.418-0.114,0.521-0.365c1.188-2.889,2.385-5.773,3.577-8.658
		c0.117-0.285,0.229-0.568,0.354-0.878C56.779,73.166,53.566,71.835,50.302,70.482z M25.583,40.066
		c-0.102,0.039-0.157,0.057-0.21,0.079c-3.14,1.3-6.279,2.602-9.422,3.894c-0.224,0.092-0.267,0.225-0.266,0.439
		c0.006,1.644,0.014,3.288-0.005,4.932c-0.004,0.352,0.126,0.413,0.438,0.412c4.355-0.008,8.711-0.005,13.067-0.006
		c0.125,0,0.25-0.013,0.426-0.022C28.258,46.528,26.928,43.315,25.583,40.066z M60.018,25.426c-0.023-0.08-0.033-0.125-0.052-0.168
		c-1.309-3.163-2.616-6.325-3.92-9.491c-0.096-0.232-0.252-0.243-0.455-0.243c-1.618,0.004-3.239,0.013-4.86-0.006
		c-0.364-0.004-0.462,0.097-0.462,0.462c0.014,4.345,0.008,8.689,0.008,13.033c0,0.126,0,0.252,0,0.446
		C53.559,28.101,56.77,26.771,60.018,25.426z M70.646,49.788c0.133,0.014,0.203,0.027,0.272,0.027
		c4.438,0.001,8.881-0.001,13.32,0.006c0.288,0,0.331-0.125,0.329-0.37c-0.006-1.608-0.014-3.216,0.007-4.824
		c0.004-0.352-0.097-0.522-0.433-0.66c-2.494-1.015-4.977-2.054-7.465-3.084c-0.658-0.273-1.32-0.542-2.006-0.823
		C73.327,43.312,71.997,46.525,70.646,49.788z M74.654,25.812c-3.28,3.282-6.536,6.536-9.809,9.808
		c3.188,1.32,6.406,2.652,9.646,3.993c0.17-0.409,0.321-0.772,0.473-1.136c1.162-2.809,2.328-5.617,3.479-8.43
		c0.054-0.127,0.062-0.359-0.014-0.438C77.171,28.322,75.896,27.053,74.654,25.812z M25.614,25.813
		c-0.035,0.032-0.115,0.101-0.189,0.176c-1.172,1.171-2.339,2.347-3.52,3.51c-0.184,0.181-0.208,0.323-0.11,0.558
		c1.216,2.917,2.421,5.838,3.63,8.758c0.109,0.262,0.227,0.52,0.347,0.795c3.247-1.346,6.458-2.676,9.644-3.996
		C32.14,32.337,28.884,29.083,25.614,25.813z M60.479,25.603c1.354,3.263,2.684,6.474,4.008,9.669
		c3.287-3.285,6.543-6.54,9.805-9.799c-1.221-1.227-2.469-2.473-3.705-3.731c-0.197-0.203-0.359-0.188-0.594-0.089
		c-2.363,0.988-4.732,1.966-7.098,2.947C62.102,24.929,61.307,25.259,60.479,25.603z M35.778,35.252
		c1.322-3.191,2.655-6.41,3.985-9.622c-0.07-0.049-0.096-0.075-0.128-0.088c-3.163-1.311-6.327-2.618-9.487-3.933
		c-0.208-0.087-0.325-0.025-0.466,0.118c-1.107,1.116-2.219,2.229-3.336,3.335c-0.143,0.142-0.32,0.248-0.424,0.327
		C29.252,28.722,32.506,31.978,35.778,35.252z M25.96,74.462c0.01,0.013,0.037,0.052,0.071,0.086
		c1.229,1.231,2.465,2.458,3.686,3.699c0.187,0.188,0.331,0.116,0.509,0.042c2.908-1.205,5.817-2.407,8.727-3.613
		c0.271-0.111,0.54-0.234,0.817-0.355c-1.348-3.252-2.678-6.463-4.002-9.658C32.48,67.945,29.224,71.2,25.96,74.462z M74.273,74.508
		c-3.291-3.29-6.545-6.544-9.807-9.807c-1.312,3.169-2.643,6.381-3.984,9.617c0.134,0.062,0.238,0.113,0.347,0.158
		c1.019,0.422,2.034,0.844,3.053,1.266c2.068,0.855,4.136,1.715,6.207,2.56c0.115,0.048,0.326,0.038,0.402-0.036
		C71.775,77.006,73.048,75.73,74.273,74.508z M25.596,74.123c3.285-3.285,6.54-6.539,9.812-9.811
		c-3.187-1.319-6.406-2.652-9.645-3.994c-0.34,0.818-0.662,1.592-0.982,2.363c-0.99,2.389-1.982,4.776-2.961,7.17
		c-0.057,0.138-0.076,0.389,0.005,0.472C23.08,71.611,24.356,72.881,25.596,74.123z M64.857,64.309
		c3.273,3.272,6.533,6.532,9.806,9.806c1.19-1.192,2.416-2.429,3.655-3.649c0.205-0.201,0.238-0.357,0.13-0.619
		c-1.093-2.605-2.169-5.218-3.25-7.826c-0.232-0.562-0.47-1.121-0.712-1.699C71.236,61.666,68.023,62.997,64.857,64.309z
		 M74.805,60.188c1.35,3.258,2.682,6.474,4.024,9.715c0.088-0.065,0.129-0.09,0.16-0.123c1.801-1.797,3.604-3.594,5.393-5.401
		c0.115-0.117,0.177-0.337,0.179-0.509c0.01-2.438,0.008-4.872,0.006-7.309c0-0.115-0.012-0.229-0.021-0.408
		C81.273,57.508,78.057,58.842,74.805,60.188z M56.307,15.527c1.364,3.296,2.698,6.516,4.043,9.762
		c3.258-1.35,6.471-2.68,9.715-4.024c-0.086-0.104-0.142-0.18-0.205-0.246c-1.764-1.766-3.527-3.533-5.301-5.289
		c-0.119-0.117-0.332-0.193-0.502-0.194c-2.005-0.014-4.009-0.009-6.013-0.009C57.495,15.527,56.943,15.527,56.307,15.527z
		 M25.449,60.188c-3.26-1.351-6.48-2.684-9.732-4.03c-0.014,0.147-0.029,0.229-0.029,0.311c-0.001,2.495-0.005,4.991,0.008,7.487
		c0.001,0.154,0.097,0.345,0.209,0.459c1.749,1.764,3.507,3.52,5.264,5.273c0.07,0.069,0.152,0.127,0.256,0.215
		C22.772,66.65,24.1,63.447,25.449,60.188z M39.905,25.288c1.346-3.25,2.679-6.47,4.031-9.733c-0.161-0.013-0.264-0.028-0.367-0.028
		c-2.472-0.001-4.944-0.005-7.416,0.01c-0.166,0-0.368,0.104-0.489,0.224c-1.756,1.739-3.502,3.489-5.25,5.238
		c-0.073,0.073-0.136,0.156-0.229,0.263C33.439,22.61,36.651,23.941,39.905,25.288z M78.848,29.986
		c-1.367,3.299-2.697,6.512-4.041,9.759c3.258,1.349,6.477,2.682,9.729,4.028c0.016-0.142,0.031-0.223,0.031-0.304
		c0.002-2.496,0.004-4.992-0.008-7.488c0-0.155-0.097-0.347-0.207-0.46c-1.203-1.222-2.422-2.43-3.634-3.645
		C80.109,31.267,79.507,30.653,78.848,29.986z M30.187,78.67c0.086,0.102,0.135,0.169,0.192,0.227
		c1.772,1.773,3.543,3.549,5.325,5.313c0.111,0.11,0.311,0.187,0.469,0.188c2.46,0.011,4.92,0.008,7.379,0.006
		c0.112,0,0.223-0.016,0.383-0.028c-1.356-3.272-2.69-6.494-4.031-9.731C36.641,75.996,33.43,77.326,30.187,78.67z M21.418,30.016
		c-0.133,0.124-0.222,0.201-0.305,0.285c-1.723,1.722-3.443,3.447-5.172,5.163c-0.187,0.185-0.26,0.37-0.259,0.631
		c0.009,2.412,0.005,4.824,0.005,7.237c0,0.127,0,0.254,0,0.456c3.288-1.362,6.508-2.696,9.761-4.043
		C24.103,36.496,22.772,33.283,21.418,30.016z M56.316,84.378c0.129,0.015,0.179,0.024,0.226,0.024
		c2.533,0.002,5.065,0.006,7.601-0.006c0.145-0.002,0.319-0.098,0.428-0.203c1.764-1.752,3.52-3.51,5.277-5.269
		c0.069-0.071,0.129-0.153,0.217-0.258c-3.26-1.351-6.474-2.681-9.715-4.022C58.999,77.907,57.667,81.12,56.316,84.378z
		 M25.889,39.927c1.322,3.19,2.628,6.343,3.977,9.598c1.888-4.559,3.736-9.021,5.622-13.574
		C32.237,37.298,29.09,38.602,25.889,39.927z M60.167,74.203c1.319-3.189,2.627-6.344,3.976-9.6
		c-4.56,1.89-9.023,3.738-13.574,5.623C53.816,71.573,56.966,72.877,60.167,74.203z M36.111,64.604
		c1.35,3.261,2.657,6.416,3.976,9.6c3.188-1.32,6.343-2.627,9.597-3.975C45.133,68.342,40.676,66.495,36.111,64.604z M64.766,35.952
		c1.889,4.561,3.737,9.022,5.623,13.575c1.352-3.263,2.657-6.42,3.975-9.599C71.177,38.607,68.027,37.303,64.766,35.952z
		 M36.112,35.328c4.568-1.893,9.026-3.74,13.572-5.624c-3.264-1.352-6.421-2.659-9.596-3.974
		C38.764,28.928,37.459,32.076,36.112,35.328z M29.866,50.41c-1.35,3.258-2.658,6.418-3.975,9.596c3.2,1.325,6.351,2.63,9.596,3.975
		C33.597,59.419,31.751,54.961,29.866,50.41z M50.568,29.705c4.564,1.892,9.021,3.737,13.57,5.622
		c-1.348-3.256-2.654-6.411-3.975-9.596C56.979,27.05,53.825,28.357,50.568,29.705z M74.361,60.005
		c-1.323-3.198-2.629-6.348-3.975-9.596c-1.891,4.562-3.734,9.018-5.621,13.569C68.02,62.633,71.173,61.326,74.361,60.005z
		 M84.552,64.766c-0.09,0.059-0.133,0.075-0.163,0.106c-1.75,1.747-3.5,3.493-5.236,5.252c-0.082,0.082-0.096,0.31-0.047,0.431
		c1.74,4.229,3.492,8.451,5.244,12.676c0.041,0.102,0.092,0.197,0.139,0.297c0.021-0.008,0.043-0.017,0.063-0.024
		C84.552,77.277,84.552,71.055,84.552,64.766z M15.703,83.501c0.023,0.006,0.047,0.011,0.07,0.019
		c0.048-0.106,0.099-0.211,0.143-0.316c1.747-4.213,3.491-8.426,5.244-12.637c0.095-0.227,0.052-0.358-0.116-0.525
		c-1.695-1.684-3.381-3.374-5.071-5.062c-0.068-0.067-0.15-0.125-0.27-0.224C15.703,71.052,15.703,77.275,15.703,83.501z
		 M84.552,16.44c-0.018-0.009-0.036-0.018-0.057-0.026c-0.043,0.079-0.095,0.155-0.127,0.237c-1.761,4.245-3.517,8.491-5.281,12.733
		c-0.088,0.212-0.06,0.341,0.101,0.5c1.711,1.701,3.416,3.408,5.123,5.112c0.059,0.06,0.137,0.103,0.241,0.182
		C84.552,28.891,84.552,22.666,84.552,16.44z M35.341,84.393c-0.095-0.117-0.139-0.185-0.194-0.24
		c-1.705-1.707-3.413-3.408-5.11-5.123c-0.181-0.184-0.326-0.172-0.533-0.086c-4.221,1.755-8.444,3.502-12.666,5.254
		c-0.085,0.035-0.164,0.09-0.245,0.135c0.01,0.021,0.019,0.041,0.028,0.062C22.835,84.393,29.047,84.393,35.341,84.393z
		 M16.597,15.538c-0.007,0.02-0.014,0.04-0.021,0.06c0.069,0.038,0.134,0.083,0.206,0.113c4.255,1.765,8.513,3.525,12.765,5.296
		c0.215,0.089,0.344,0.052,0.5-0.105c1.701-1.71,3.408-3.414,5.113-5.121c0.059-0.06,0.101-0.136,0.177-0.243
		C29.049,15.538,22.823,15.538,16.597,15.538z M64.9,15.547c0.072,0.098,0.099,0.14,0.129,0.172c1.74,1.741,3.484,3.479,5.22,5.227
		c0.17,0.171,0.308,0.119,0.479,0.049c4.225-1.752,8.448-3.503,12.676-5.255c0.088-0.037,0.17-0.09,0.254-0.135
		c-0.006-0.019-0.014-0.038-0.021-0.058C77.413,15.547,71.191,15.547,64.9,15.547z M15.709,35.177
		c0.088-0.055,0.122-0.069,0.146-0.093c1.75-1.748,3.496-3.5,5.252-5.241c0.173-0.171,0.117-0.309,0.047-0.479
		c-1.752-4.225-3.502-8.451-5.254-12.676c-0.037-0.088-0.091-0.169-0.136-0.254c-0.018,0.009-0.037,0.017-0.055,0.025
		C15.709,22.681,15.709,28.902,15.709,35.177z M64.915,84.277c0.022,0.033,0.047,0.065,0.069,0.1c6.22,0,12.438,0,18.656,0
		c-0.084-0.109-0.188-0.159-0.291-0.202c-4.182-1.733-8.365-3.463-12.543-5.204c-0.272-0.115-0.436-0.1-0.647,0.116
		c-1.332,1.353-2.677,2.69-4.021,4.028C65.738,83.512,65.323,83.891,64.915,84.277z M63.915,15.209
		c-4.418-4.419-8.819-8.821-13.196-13.197c0.012,0.035,0.037,0.125,0.072,0.21c1.749,4.223,3.501,8.444,5.243,12.67
		c0.108,0.269,0.254,0.343,0.53,0.341c2.34-0.011,4.681-0.006,7.021-0.007C63.702,15.227,63.814,15.215,63.915,15.209z
		 M49.481,2.159c-4.283,4.283-8.688,8.688-13.069,13.069c0.038,0,0.155,0,0.272,0c2.33,0,4.66-0.005,6.99,0.006
		c0.293,0.002,0.438-0.08,0.555-0.363c1.57-3.821,3.156-7.636,4.738-11.453C49.166,2.935,49.363,2.45,49.481,2.159z M84.866,36.173
		c0,0.106,0,0.232,0,0.357c0,2.328,0.004,4.656-0.009,6.984c0,0.293,0.082,0.437,0.365,0.553c4.182,1.721,8.359,3.455,12.537,5.185
		c0.127,0.052,0.256,0.094,0.289,0.105C93.695,45.005,89.292,40.6,84.866,36.173z M84.884,63.73
		c4.402-4.401,8.81-8.809,13.216-13.213c-0.066,0.062-0.179,0.1-0.283,0.144c-4.217,1.743-8.43,3.491-12.648,5.228
		c-0.248,0.103-0.307,0.238-0.307,0.483c0.008,2.354,0.006,4.708,0.006,7.062C84.866,63.548,84.88,63.662,84.884,63.73z
		 M15.369,63.73c0.004-0.067,0.018-0.183,0.018-0.297c0.001-2.354-0.004-4.707,0.007-7.062c0.001-0.274-0.095-0.396-0.34-0.497
		c-3.831-1.579-7.657-3.167-11.485-4.752c-0.482-0.2-0.967-0.396-1.368-0.559C6.561,54.923,10.966,59.329,15.369,63.73z
		 M2.146,49.384c0.066-0.023,0.156-0.049,0.242-0.085c4.237-1.756,8.473-3.514,12.713-5.263c0.231-0.096,0.293-0.219,0.292-0.455
		c-0.008-2.378-0.005-4.756-0.006-7.134c0-0.1-0.017-0.201-0.024-0.281C10.946,40.583,6.543,44.986,2.146,49.384z M36.303,84.727
		c4.436,4.437,8.84,8.84,13.239,13.238c-0.024-0.074-0.052-0.174-0.091-0.27c-1.749-4.227-3.5-8.451-5.244-12.68
		c-0.097-0.236-0.222-0.318-0.477-0.316c-2.366,0.01-4.732,0.005-7.098,0.006C36.529,84.705,36.426,84.718,36.303,84.727z
		 M63.902,84.73c-0.051-0.006-0.141-0.024-0.229-0.024c-2.399-0.002-4.803,0.003-7.205-0.007c-0.239,0-0.329,0.103-0.411,0.302
		c-1.757,4.249-3.519,8.496-5.277,12.744c-0.03,0.075-0.043,0.157-0.043,0.153C55.102,93.535,59.503,89.134,63.902,84.73z
		 M49.875,97.831c0.029-0.009,0.059-0.019,0.088-0.026c0.006-0.059,0.014-0.115,0.014-0.175c0-4.19-0.002-8.38,0.006-12.569
		c0.002-0.297-0.107-0.361-0.379-0.359c-1.596,0.009-3.193,0.004-4.789,0.005c-0.102,0.001-0.203,0.021-0.362,0.037
		C46.272,89.135,48.073,93.482,49.875,97.831z M50.275,97.805c0.035,0.008,0.07,0.018,0.104,0.026
		c1.803-4.354,3.607-8.71,5.434-13.125c-0.209,0-0.326,0-0.444,0c-1.55-0.001-3.099,0.012-4.646-0.011
		c-0.381-0.006-0.455,0.121-0.454,0.473c0.013,2.93,0.007,5.857,0.007,8.789C50.275,95.238,50.275,96.521,50.275,97.805z
		 M44.453,15.191c0.127,0.02,0.174,0.033,0.221,0.033c1.668,0.002,3.337-0.003,5.005,0.007c0.324,0.002,0.299-0.189,0.299-0.4
		c-0.002-4.153-0.002-8.307-0.003-12.46c0-0.086-0.019-0.172-0.028-0.258c-0.024-0.004-0.049-0.008-0.072-0.012
		C48.073,6.451,46.272,10.799,44.453,15.191z M15.37,55.646c0.008-0.193,0.018-0.301,0.018-0.406c0-1.573-0.01-3.146,0.009-4.719
		c0.004-0.353-0.127-0.413-0.438-0.413c-4.118,0.008-8.235,0.006-12.353,0.007c-0.11,0-0.221,0.013-0.331,0.02
		c-0.004,0.027-0.008,0.055-0.012,0.082C6.611,52.02,10.958,53.82,15.37,55.646z M84.907,44.295
		c-0.021,0.12-0.039,0.175-0.039,0.231c-0.002,1.669,0.002,3.337-0.007,5.006c-0.002,0.299,0.175,0.285,0.375,0.285
		c4.166-0.001,8.332-0.001,12.498-0.002c0.08,0,0.162-0.02,0.244-0.031c0.002-0.024,0.004-0.049,0.006-0.073
		C93.637,47.91,89.288,46.109,84.907,44.295z M2.262,49.714c0.009,0.03,0.018,0.06,0.026,0.089c0.059,0.004,0.117,0.012,0.175,0.013
		c4.19,0,8.379-0.001,12.569,0.004c0.254,0,0.36-0.059,0.358-0.34c-0.011-1.621-0.003-3.241-0.004-4.862
		c0-0.089-0.022-0.179-0.042-0.323C10.958,46.112,6.61,47.913,2.262,49.714z M50.382,2.109c-0.03,0.005-0.06,0.009-0.089,0.014
		c-0.006,0.079-0.016,0.157-0.016,0.235c-0.002,4.166,0.002,8.331-0.008,12.497c0,0.311,0.111,0.38,0.398,0.378
		c1.573-0.011,3.146-0.005,4.718-0.006c0.115,0,0.23-0.012,0.42-0.022C53.982,10.806,52.184,6.458,50.382,2.109z M97.982,50.222
		c-0.004-0.03-0.01-0.06-0.014-0.089c-0.078-0.006-0.156-0.016-0.234-0.016c-4.166-0.001-8.332,0.002-12.498-0.007
		c-0.311-0.001-0.379,0.112-0.377,0.398c0.013,1.585,0.004,3.169,0.007,4.754c0,0.104,0.016,0.207,0.028,0.381
		C89.286,53.823,93.637,52.021,97.982,50.222z M29.504,78.586c-1.305-1.303-2.585-2.582-3.8-3.795
		c-3.057,3.055-6.136,6.133-9.174,9.169C20.812,82.188,25.163,80.384,29.504,78.586z M16.372,15.907
		c3.154,3.154,6.232,6.232,9.259,9.26c1.263-1.263,2.546-2.546,3.836-3.836C25.157,19.545,20.806,17.743,16.372,15.907z
		 M83.796,15.941c-4.353,1.803-8.707,3.607-13.058,5.409c1.31,1.306,2.589,2.584,3.826,3.819
		C77.624,22.112,80.706,19.03,83.796,15.941z M25.337,25.504c-3.06-3.06-6.138-6.139-9.254-9.255
		c1.819,4.393,3.624,8.751,5.42,13.088C22.799,28.042,24.078,26.764,25.337,25.504z M70.734,78.58
		c4.361,1.807,8.714,3.609,13.095,5.424c-3.117-3.117-6.195-6.193-9.259-9.256C73.325,75.994,72.052,77.266,70.734,78.58z
		 M84.157,16.282c-3.101,3.101-6.181,6.184-9.195,9.201c1.244,1.242,2.524,2.523,3.81,3.806
		C80.552,24.99,82.354,20.64,84.157,16.282z M21.503,70.6c-1.802,4.351-3.603,8.699-5.42,13.088c3.12-3.119,6.198-6.198,9.256-9.258
		C24.087,73.18,22.808,71.9,21.503,70.6z M74.948,74.409c3.045,3.046,6.125,6.126,9.186,9.188
		c-1.784-4.312-3.588-8.662-5.381-12.992C77.458,71.9,76.18,73.18,74.948,74.409z"/>
</g>
</svg>
