<?xml version="1.0" encoding="utf-8"?>
<!-- Generator: Adobe Illustrator 19.2.0, SVG Export Plug-In . SVG Version: 6.00 Build 0)  -->
<svg version="1.1" id="Layer_1" xmlns="http://www.w3.org/2000/svg" xmlns:xlink="http://www.w3.org/1999/xlink" x="0px" y="0px"
	 viewBox="0 0 100 100" style="enable-background:new 0 0 100 100;" xml:space="preserve">
<style type="text/css">
	.st0{stroke:#000000;stroke-miterlimit:10;}
</style>
<g>
	<path class="st0" d="M99.2,48.5c0,14.3-4.3,25.4-12.9,34.8C75.8,94.7,62.5,100,46.8,99.2c-11.5-0.6-21.5-4.9-30-12.6
		C5.3,75.8,0,62.4,0.8,46.7c0.6-11.5,4.9-21.5,12.7-30C24.3,5.2,37.6,0,53.3,0.8c11.4,0.6,21.4,4.9,29.9,12.6
		C93.8,23.3,99.1,35.5,99.2,48.5z M50,95.3c2.2-0.2,4.4-0.3,6.7-0.5c4.5-0.5,8.7-1.9,12.8-3.9c4.4-2.1,8.3-4.8,11.8-8.2
		c2.4-2.3,4.5-4.8,6.3-7.5c2.3-3.4,4.1-7.2,5.4-11.1c1.2-3.4,1.9-6.9,2.1-10.4c0.2-2.8,0-5.7-0.2-8.5c-0.1-2.8-0.7-5.6-1.6-8.2
		c-1-3.3-2.3-6.5-4.1-9.5c-1.4-2.2-2.9-4.4-4.5-6.4c-1.2-1.5-2.6-2.8-3.9-4.1c-2.7-2.8-5.9-4.9-9.3-6.8c-5.5-3-11.4-4.9-17.7-5.2
		c-3.7-0.2-7.4-0.2-11.1,0.4c-6.4,1-12.3,3.4-17.7,7c-4.2,2.8-7.8,6.2-10.8,10.2c-2.6,3.4-4.6,7-6.2,10.9c-1.7,4.2-2.8,8.5-3,13
		c-0.2,3.4-0.2,6.8,0.3,10.1c0.6,4.7,2.1,9.1,4.1,13.3c1.6,3.5,3.8,6.6,6.3,9.6c2,2.4,4.2,4.6,6.8,6.4c1.9,1.3,3.8,2.6,5.8,3.8
		c3.1,1.9,6.5,3.2,10,4.1C42,94.8,45.9,95.3,50,95.3z"/>
	<path class="st0" d="M80.6,34.4c0,0.5,0,0.8,0,1.1c0,10,0,20.1,0,30.1c0,2.4-1.2,3.6-3.6,3.6c-18,0-36,0-54.1,0c-0.5,0-1,0-1.5-0.2
		c-1.4-0.4-2.1-1.5-2.1-2.9c0-10.3,0-20.6,0-31c0-0.2,0-0.4,0.1-0.7c0.3,0.3,0.6,0.4,0.8,0.6c9.1,7.7,18.1,15.5,27.2,23.2
		c0.5,0.5,1.1,0.9,1.8,1.1c1.2,0.4,2.2,0,3.2-0.9c4.1-3.5,8.1-7,12.2-10.5c5.1-4.3,10.1-8.7,15.2-13C80,34.9,80.2,34.7,80.6,34.4z"
		/>
	<path class="st0" d="M79.2,31.4C69.5,39.7,59.7,48,50,56.4C40.2,48,30.5,39.7,20.6,31.2c0.7-0.2,1.3-0.4,1.8-0.5
		c0.4-0.1,0.8,0,1.2,0c17.8,0,35.6,0,53.3,0c0.7,0,1.4,0.2,2.2,0.3C79.1,31.2,79.1,31.3,79.2,31.4z"/>
</g>
</svg>
