<?xml version="1.0" encoding="utf-8"?>
<!-- Generator: Adobe Illustrator 19.2.0, SVG Export Plug-In . SVG Version: 6.00 Build 0)  -->
<svg version="1.1" id="Layer_1" xmlns="http://www.w3.org/2000/svg" xmlns:xlink="http://www.w3.org/1999/xlink" x="0px" y="0px"
	 viewBox="0 0 100 100" style="enable-background:new 0 0 100 100;" xml:space="preserve">
<style type="text/css">
	.st0{stroke:#000000;stroke-width:4;stroke-miterlimit:10;}
</style>
<g>
	<path class="st0" d="M50.4,97.5c-13,0-26.1,0-39.1,0c-3.9,0-7.1-2.6-7.9-6.5c-0.1-0.5-0.1-1-0.1-1.4c0-26.1,0-52.2,0-78.3
		c0-4.5,3.5-7.9,8-7.9c11.4,0,22.8,0,34.2,0c14.7,0,29.5,0,44.2,0c4.1,0,7.6,3.5,7.7,7.6c0,0.2,0,0.3,0,0.5c0,26,0,52,0,78.1
		c0,3.4-1.8,6.2-4.9,7.4c-1,0.4-2.1,0.6-3.2,0.6C76.4,97.5,63.4,97.5,50.4,97.5z M52,45.4c0-0.2,0-0.3,0-0.5c0-2.6,0-5.2,0-7.8
		c0-2.6,0.3-5.1,1.1-7.6c1.5-4.7,4.4-8.3,8.9-10.4c2.9-1.4,6.1-2,9.3-1.9c3.4,0.1,6.7,0.3,10.1,0.5c0.7,0,1.4,0.2,2.1,0.3
		c0,5.1,0,10.2,0,15.2c-0.2,0-0.3,0-0.5,0c-2.7,0-5.4,0-8,0c-0.9,0-1.9,0.1-2.8,0.3c-1.3,0.2-2.2,1.1-2.4,2.4
		c-0.1,0.4-0.2,0.9-0.2,1.3c0,2.7,0,5.4-0.1,8c0,0.1,0,0.2,0.1,0.3c4.6,0,9.2,0,13.8,0c-0.7,5.6-1.4,11.2-2.2,16.9
		c-3.9,0-7.8,0-11.6,0c0,10.7,0,21.4,0,32.1c0.1,0,0.2,0,0.3,0c6.7,0,13.4,0,20.2,0c0.6,0,1.3-0.2,1.8-0.4c1.9-0.9,2.8-2.4,2.8-4.5
		c0-20.6,0-41.3,0-61.9c0-5.4,0-10.8,0-16.2c0-0.6-0.1-1.2-0.3-1.7c-0.7-2-2.4-3.1-4.6-3.1c-8.8,0-17.6,0-26.3,0
		c-17.3,0-34.5,0-51.8,0c-2.9,0-4.9,2-4.9,4.9c0,26,0,52.1,0,78.1c0,2.8,2,4.9,4.8,4.9c13.4,0,26.8,0,40.2,0c0.1,0,0.3,0,0.4,0
		c0-10.7,0-21.4,0-32.1c-4,0-7.9,0-11.8,0c0-5.6,0-11.2,0-16.9C44.1,45.4,48,45.4,52,45.4z M79.5,48.5c-4.5,0-8.9,0-13.4,0
		c0-0.2,0-0.3,0-0.4c0-3.3,0-6.6,0-9.9c0-0.9,0.1-1.8,0.2-2.7c0.3-1.9,1.2-3.4,2.9-4.4c1.5-0.9,3.1-1.1,4.8-1.2c1.9,0,3.8,0,5.7,0
		c0.2,0,0.3,0,0.5,0c0-3.1,0-6.2,0-9.2c-0.1,0-0.1,0-0.2,0c-2.7-0.1-5.4-0.3-8.1-0.4c-1.8-0.1-3.7,0.1-5.5,0.5c-3.9,0.9-7,3-9,6.5
		c-1.6,2.7-2.2,5.6-2.2,8.7c-0.1,4,0,8,0,12c0,0.2,0,0.3,0,0.5c-4,0-7.9,0-11.8,0c0,3.5,0,7.1,0,10.6c4,0,7.9,0,11.9,0
		c0,11.8,0,23.5,0,35.2c3.7,0,7.3,0,11,0c0-11.7,0-23.5,0-35.2c0.2,0,0.4,0,0.5,0c3.7,0,7.4,0,11.1,0c0.3,0,0.4,0,0.5-0.3
		c0.1-1.1,0.3-2.2,0.4-3.3C78.9,53.2,79.2,50.9,79.5,48.5z"/>
</g>
</svg>
