<?xml version="1.0" encoding="utf-8"?>
<!-- Generator: Adobe Illustrator 19.2.0, SVG Export Plug-In . SVG Version: 6.00 Build 0)  -->
<svg version="1.1" id="Layer_1" xmlns="http://www.w3.org/2000/svg" xmlns:xlink="http://www.w3.org/1999/xlink" x="0px" y="0px"
	 viewBox="0 0 100 100" style="enable-background:new 0 0 100 100;" xml:space="preserve">
<path d="M95.1,14.6H4.9C2.2,14.6,0,12.4,0,9.8l0,0c0-2.7,2.2-4.9,4.9-4.9h90.2c2.7,0,4.9,2.2,4.9,4.9l0,0
	C100,12.4,97.8,14.6,95.1,14.6z"/>
<path d="M95.1,92.3H4.9c-2.7,0-4.9-2.2-4.9-4.9l0,0c0-2.7,2.2-4.9,4.9-4.9h90.2c2.7,0,4.9,2.2,4.9,4.9l0,0
	C100,90.1,97.8,92.3,95.1,92.3z"/>
<path d="M95.1,53.5H4.9c-2.7,0-4.9-2.2-4.9-4.9l0,0c0-2.7,2.2-4.9,4.9-4.9h90.2c2.7,0,4.9,2.2,4.9,4.9l0,0
	C100,51.3,97.8,53.5,95.1,53.5z"/>
</svg>
