<?xml version="1.0" encoding="utf-8"?>
<!-- Generator: Adobe Illustrator 19.2.0, SVG Export Plug-In . SVG Version: 6.00 Build 0)  -->
<svg version="1.1" id="Layer_1" xmlns="http://www.w3.org/2000/svg" xmlns:xlink="http://www.w3.org/1999/xlink" x="0px" y="0px"
	 viewBox="0 0 100 100" style="enable-background:new 0 0 100 100;" xml:space="preserve">
<style type="text/css">
	.st0{stroke:#000000;stroke-miterlimit:10;}
</style>
<g id="dVMJ6W.tif">
	<g>
		<path class="st0" d="M46.4,0c2.3,0,4.7,0,7,0c1.3,0.2,2.7,0.5,4,0.7C78.2,4,94.6,19.6,98.8,40.3c0.4,2,0.7,4.1,1.1,6.1
			c0,2.3,0,4.7,0,7c-0.2,1.3-0.5,2.7-0.7,4c-3.3,20.8-18.9,37.1-39.6,41.4c-2,0.4-4.1,0.7-6.1,1.1c-2.3,0-4.7,0-7,0
			c-1.3-0.2-2.7-0.5-4-0.7C21.6,95.9,5.3,80.3,1.1,59.5c-0.4-2-0.7-4.1-1.1-6.1c0-2.3,0-4.7,0-7c0.2-1.3,0.5-2.7,0.7-4
			c3.2-20.7,19-37.2,39.4-41.3C42.2,0.7,44.3,0.4,46.4,0z M49.9,93.5c23.9,0,43.6-19.6,43.7-43.5c0-23.9-19.6-43.7-43.5-43.7
			C26.1,6.2,6.3,25.9,6.3,49.9C6.3,73.8,26,93.5,49.9,93.5z"/>
		<path class="st0" d="M41.3,74.7c-0.6-0.7-0.9-1.2-1.4-1.5c-6.8-4.3-7.6-12.4-1.8-17.9c0.1-0.1,0.1-0.2,0.2-0.4
			c-5.3-2.9-9.8-6.5-9.5-13.4c-2.7-3.1-3.1-5.7-1.2-8.2c1.8-2.5,4.3-2.9,8.1-1.2c3.9-2.4,8.3-3.4,13.1-3.6c0.8-2.5,1.5-5,2.3-7.4
			c1-3.2,1.1-3.3,4.4-2.5c1.8,0.4,3.5,0.8,5.4,1.2c1.1-1.1,2.1-2.5,3.8-2.5c1,0,2.1,0.2,3,0.6c1.9,0.9,2.7,3.2,2.2,5.4
			c-0.5,1.9-2.2,3.3-4.2,3.5c-2.4,0.2-3.9-1-5.3-4.4c-1.9-0.5-3.9-1-6.2-1.5c-0.8,2.5-1.5,4.9-2.3,7.5c4.4,0.5,8.5,1.4,12.1,3.7
			c3.9-1.7,6.5-1.2,8.6,1.6c2,2.8,1.6,5.1-1.2,8.1c0.3,3-0.7,5.6-2.6,7.9c-1.8,2.2-4.2,3.8-7.2,5.4c0.6,0.4,1.1,0.5,1.4,0.9
			c3.5,3.5,4.3,9.2,1.8,13.5c-0.9,1.6-2.2,2.9-3.9,3.6c-0.8,0.3-1.3,0.8-1.4,1.8c0.6,0.2,1.2,0.3,1.8,0.5c1.9,0.7,3.4,2,3.8,4.1
			c0.4,2-0.5,3.1-2.5,3.1c-8.2,0-16.4,0-24.6,0c-2,0-2.6-0.6-2.5-2.6c0.1-2.2,1.4-3.6,3.3-4.4C39.4,75.3,40.1,75.1,41.3,74.7z
			 M51.6,54.3c2.7,0,6.8-0.9,10-2.8c1.4-0.8,2.7-1.8,3.8-2.9c3.1-3.3,3.2-7.5,0.3-10.9c-1.1-1.3-2.5-2.5-4-3.3
			c-7.4-3.9-15-4-22.7-0.8c-2.1,0.9-3.8,2.2-5.3,3.9c-2.7,3.3-2.7,7.4,0,10.7c1.4,1.7,3.1,2.9,5.1,3.8C42.3,53.6,46,54.3,51.6,54.3z
			 M51.8,80c6.2-4.5,7.4-17.9,5.7-23.9c-5.1,1.3-10.3,1.2-15.6-0.1c-0.1,0.5-0.2,0.8-0.3,1.1c-0.6,4.3-0.3,8.5,0.6,12.8
			c0.6,2.7,1.5,5.2,3,7.5c1.1,1.8,2.5,3,4.8,2.6C50.7,79.9,51.2,80,51.8,80z M60.6,69.1c2.9-2.8,3.1-8.3,0.5-10.1
			C60.9,62.4,60.7,65.7,60.6,69.1z M39,69.2c-0.2-3.5-0.4-6.8-0.6-10.1C36.1,61.6,36.3,66,39,69.2z M65.5,24.1c1,0,2-0.9,2-2
			c0-1.1-1-2.1-2.1-2.1c-1,0.1-1.9,1-1.9,2.1C63.5,23.1,64.5,24.1,65.5,24.1z M42.2,77.7c-2.5-0.3-3.3,0.1-4.2,2c1.8,0,3.5,0,5.5,0
			C43,78.9,42.6,78.3,42.2,77.7z M57.3,77.7c-0.4,0.7-0.8,1.3-1.3,2c2,0,3.7,0,5.5,0C60.5,77.8,59.8,77.5,57.3,77.7z M66.7,33.8
			c1.2,1.6,2.2,3,3.3,4.4c0.8-1.3,0.9-2.5-0.1-3.6C69.1,33.7,68,33.3,66.7,33.8z M29.8,38.2c1.2-1.5,2.2-2.8,3.4-4.2
			C30.3,33.5,28.9,35.2,29.8,38.2z"/>
		<path class="st0" d="M56.9,47.2c0.4,0.4,0.8,0.8,1.2,1.2c-2.5,4.8-13.2,4.9-16.2,0.3c0.6-1.4,1.1-1.7,2.2-1.1
			c4.2,2.3,8.2,2.2,12.3-0.4C56.4,47.3,56.5,47.3,56.9,47.2z"/>
		<path class="st0" d="M59.8,40.2c0,1.7-1.3,3.1-3,3.2c-1.7,0-3.1-1.3-3.2-3c0-1.8,1.4-3.3,3.1-3.3C58.5,37,59.8,38.4,59.8,40.2z"/>
		<path class="st0" d="M46.1,40.2c0,1.7-1.4,3.1-3.1,3.1c-1.7,0-3.1-1.4-3.1-3.1c0-1.8,1.5-3.3,3.2-3.2
			C44.8,37.1,46.1,38.5,46.1,40.2z"/>
	</g>
</g>
</svg>
